<svg width="171" height="51" viewBox="0 0 171 51" fill="none" xmlns="http://www.w3.org/2000/svg">
<g clip-path="url(#clip0_349_1115)">
<path d="M164.996 51.0071H5.9934C2.68198 51.0071 0 48.3081 0 44.9755V6.03162C0 2.69908 2.68198 0 5.9934 0H164.996C168.308 0 170.99 2.69908 170.99 6.03162V44.9755C170.99 48.3081 168.308 51.0071 164.996 51.0071Z" fill="#A6A6A6"/>
<path d="M169.868 44.9757C169.868 47.6748 167.706 49.8506 165.024 49.8506H6.02076C3.33878 49.8506 1.14941 47.6748 1.14941 44.9757V6.03181C1.14941 3.33273 3.33878 1.12939 6.02076 1.12939H165.024C167.706 1.12939 169.895 3.30518 169.895 6.03181L169.868 44.9757Z" fill="#020625"/>
<path d="M38.177 25.2283C38.1496 21.1246 41.5158 19.114 41.68 19.0314C39.7643 16.2222 36.8087 15.8366 35.7413 15.809C33.2509 15.5336 30.8426 17.3238 29.5564 17.3238C28.2701 17.3238 26.2997 15.8366 24.1924 15.8917C21.4831 15.9468 18.9379 17.5166 17.5422 19.9678C14.6687 24.9804 16.8033 32.334 19.5674 36.3551C20.9357 38.3381 22.5504 40.5414 24.6577 40.4588C26.7102 40.3762 27.4765 39.1368 29.9669 39.1368C32.4299 39.1368 33.1415 40.4588 35.3035 40.4037C37.5202 40.3762 38.9159 38.4207 40.2295 36.4102C41.8168 34.1518 42.4463 31.8934 42.4736 31.7832C42.4736 31.7832 38.2317 30.1582 38.177 25.2283ZM34.1267 13.1375C35.2214 11.7329 35.9876 9.86004 35.7687 7.93213C34.154 8.01475 32.1562 9.06134 31.0068 10.4109C29.9942 11.6227 29.0638 13.5782 29.3101 15.4235C31.1163 15.5612 32.9773 14.5146 34.1267 13.1375Z" fill="white"/>
<path d="M164.996 0H79.8296L113.19 51.0071H164.996C168.307 51.0071 170.989 48.3081 170.989 44.9755V6.03162C170.989 2.69908 168.307 0 164.996 0Z" fill="url(#paint0_linear_349_1115)"/>
<path d="M68.0078 40.1834H65.1342L63.5469 35.1983H58.0735L56.5683 40.1834H53.7769L59.1955 23.2177H62.5617L68.0078 40.1834ZM63.0817 33.1052L61.6586 28.671C61.4944 28.2303 61.2207 27.1562 60.8102 25.4761H60.7555C60.5913 26.1922 60.3176 27.2663 59.9618 28.671L58.5661 33.1052H63.0817ZM81.9376 33.9039C81.9376 35.997 81.3629 37.622 80.2409 38.8338C79.2283 39.908 77.9968 40.4588 76.4916 40.4588C74.8769 40.4588 73.7275 39.8804 73.0159 38.7237V45.1409H70.334V31.9484C70.334 30.654 70.3066 29.3044 70.2245 27.9273H72.6054L72.7696 29.8552H72.8244C73.7275 28.3955 75.0958 27.6519 76.9294 27.6519C78.3525 27.6519 79.5567 28.2303 80.5145 29.3595C81.4724 30.5438 81.9376 32.0586 81.9376 33.9039ZM79.2009 34.014C79.2009 32.8297 78.9272 31.8382 78.4073 31.0671C77.8326 30.2684 77.0389 29.8552 76.0537 29.8552C75.3969 29.8552 74.7948 30.0756 74.2475 30.5162C73.7001 30.9569 73.3443 31.5353 73.1801 32.2789C73.098 32.5543 73.0707 32.8297 73.0433 33.1052V35.1432C73.0433 36.0246 73.317 36.7957 73.8643 37.4017C74.4117 38.0076 75.1232 38.3105 75.9716 38.3105C76.9842 38.3105 77.7778 37.925 78.3525 37.1262C78.9272 36.3551 79.2009 35.3085 79.2009 34.014ZM95.9496 33.9039C95.9496 35.997 95.3749 37.622 94.2528 38.8338C93.2402 39.908 92.0087 40.4588 90.5035 40.4588C88.8889 40.4588 87.7394 39.8804 87.0279 38.7237V45.1409H84.3186V31.9484C84.3186 30.654 84.2912 29.3044 84.2091 27.9273H86.59L86.7542 29.8552H86.809C87.7121 28.3955 89.0804 27.6519 90.914 27.6519C92.3371 27.6519 93.5413 28.2303 94.4991 29.3595C95.457 30.5438 95.9496 32.0586 95.9496 33.9039ZM93.1855 34.014C93.1855 32.8297 92.9118 31.8382 92.3919 31.0671C91.8171 30.2684 91.0235 29.8552 90.0383 29.8552C89.3815 29.8552 88.7794 30.0756 88.2321 30.5162C87.6847 30.9569 87.3289 31.5353 87.1647 32.2789C87.0826 32.6094 87.0279 32.8848 87.0279 33.1052V35.1432C87.0279 36.0246 87.3016 36.7957 87.8489 37.4017C88.3963 38.0076 89.1078 38.3105 89.9562 38.3105C90.9688 38.3105 91.7624 37.925 92.3371 37.1262C92.9118 36.3551 93.1855 35.3085 93.1855 34.014ZM111.576 35.4187C111.576 36.8508 111.084 38.0351 110.071 38.944C108.976 39.9355 107.444 40.4312 105.473 40.4312C103.667 40.4312 102.217 40.0732 101.095 39.3847L101.724 37.1262C102.901 37.8423 104.214 38.1728 105.638 38.1728C106.65 38.1728 107.444 37.9525 108.018 37.4843C108.593 37.0161 108.867 36.4102 108.867 35.639C108.867 34.9505 108.621 34.3721 108.155 33.9039C107.69 33.4357 106.924 32.995 105.829 32.5819C102.873 31.4802 101.396 29.8552 101.396 27.707C101.396 26.3024 101.916 25.1732 102.956 24.2918C103.996 23.4105 105.391 22.9698 107.088 22.9698C108.621 22.9698 109.907 23.2453 110.919 23.7685L110.235 25.9719C109.277 25.4486 108.21 25.2007 107.006 25.2007C106.048 25.2007 105.309 25.4486 104.762 25.9168C104.324 26.3299 104.078 26.8532 104.078 27.4591C104.078 28.1201 104.324 28.6985 104.844 29.1116C105.282 29.5247 106.103 29.9379 107.307 30.4336C108.757 31.012 109.825 31.7005 110.509 32.4992C111.248 33.2704 111.576 34.2344 111.576 35.4187ZM120.525 29.993H117.542V35.942C117.542 37.4567 118.062 38.2004 119.13 38.2004C119.622 38.2004 120.005 38.1728 120.334 38.0627L120.416 40.1283C119.896 40.3211 119.184 40.4312 118.309 40.4312C117.241 40.4312 116.42 40.1007 115.818 39.4397C115.216 38.7787 114.915 37.6771 114.915 36.1347V29.9654H113.136V27.9273H114.915V25.6965L117.57 24.8978V27.9549H120.553L120.525 29.993ZM133.935 33.959C133.935 35.8318 133.388 37.3741 132.32 38.586C131.198 39.8253 129.721 40.4588 127.86 40.4588C126.081 40.4588 124.658 39.8529 123.59 38.6686C122.523 37.4843 122.003 35.9695 122.003 34.1517C122.003 32.2514 122.55 30.709 123.645 29.4972C124.74 28.2854 126.218 27.6795 128.051 27.6795C129.83 27.6795 131.281 28.2854 132.348 29.4697C133.415 30.6264 133.935 32.1412 133.935 33.959ZM131.144 34.014C131.144 32.8848 130.897 31.9209 130.432 31.1222C129.857 30.1582 129.064 29.6625 127.996 29.6625C126.902 29.6625 126.081 30.1582 125.506 31.1222C125.013 31.9209 124.795 32.9124 124.795 34.0691C124.795 35.1983 125.041 36.1623 125.506 36.961C126.081 37.925 126.902 38.4207 127.969 38.4207C129.009 38.4207 129.803 37.925 130.405 36.9335C130.897 36.1072 131.144 35.1432 131.144 34.014ZM142.72 30.3235C142.446 30.2684 142.145 30.2408 141.872 30.2408C140.914 30.2408 140.175 30.5989 139.682 31.315C139.244 31.9484 138.998 32.7471 138.998 33.7386V40.1558H136.289V31.7832C136.289 30.4887 136.261 29.2218 136.207 27.9273H138.56L138.67 30.2684H138.752C139.025 29.4697 139.491 28.8087 140.093 28.3405C140.667 27.9273 141.352 27.6795 142.036 27.6795C142.282 27.6795 142.501 27.707 142.72 27.7345V30.3235ZM154.816 33.4907C154.816 33.9039 154.789 34.317 154.707 34.7301H146.606C146.633 35.942 147.017 36.8784 147.783 37.5118C148.467 38.0902 149.343 38.3656 150.438 38.3656C151.642 38.3656 152.736 38.1728 153.722 37.7872L154.132 39.6601C152.983 40.1558 151.614 40.4037 150.054 40.4037C148.166 40.4037 146.688 39.8529 145.621 38.7237C144.554 37.5945 144.006 36.1072 144.006 34.2344C144.006 32.3891 144.499 30.8467 145.511 29.6349C146.551 28.3129 147.974 27.6795 149.753 27.6795C151.505 27.6795 152.846 28.3405 153.722 29.6349C154.46 30.6815 154.816 31.9484 154.816 33.4907ZM152.244 32.7747C152.271 31.976 152.08 31.2599 151.724 30.6815C151.259 29.9103 150.547 29.5523 149.562 29.5523C148.686 29.5523 147.947 29.9103 147.4 30.654C146.962 31.2323 146.688 31.9484 146.606 32.7747H152.244ZM57.3072 17.2136C56.5683 17.2136 55.9115 17.1861 55.3641 17.1035V8.89605C56.1304 8.78588 56.8967 8.7308 57.663 8.7308C60.7555 8.7308 62.1786 10.2731 62.1786 12.7794C62.1786 15.6438 60.4818 17.2136 57.3072 17.2136ZM57.7451 9.77738C57.3346 9.77738 56.9788 9.80492 56.6778 9.86001V16.0844C56.842 16.112 57.143 16.112 57.5809 16.112C59.606 16.112 60.7555 14.9552 60.7555 12.7794C60.7555 10.8515 59.7155 9.77738 57.7451 9.77738ZM66.612 17.2687C64.8605 17.2687 63.7385 15.9467 63.7385 14.184C63.7385 12.3388 64.8879 11.0168 66.7215 11.0168C68.4456 11.0168 69.595 12.2561 69.595 14.1014C69.595 15.9467 68.3909 17.2687 66.612 17.2687ZM66.6668 11.9807C65.7089 11.9807 65.0795 12.8896 65.0795 14.1565C65.0795 15.3959 65.7089 16.3048 66.6394 16.3048C67.5699 16.3048 68.1993 15.3408 68.1993 14.129C68.2267 12.8896 67.5972 11.9807 66.6668 11.9807ZM79.5567 11.1269L77.6957 17.131H76.4642L75.6979 14.5145C75.5063 13.8811 75.3421 13.2201 75.2053 12.5591H75.1779C75.0685 13.2201 74.9043 13.8811 74.6853 14.5145L73.8643 17.131H72.6328L70.8813 11.1269H72.2497L72.9338 13.9913C73.098 14.6798 73.2349 15.3133 73.3443 15.9192H73.3717C73.4812 15.4234 73.618 14.79 73.8643 13.9913L74.7127 11.1269H75.8074L76.6284 13.9362C76.82 14.6247 76.9842 15.2857 77.121 15.9192H77.1484C77.2305 15.3133 77.3673 14.6523 77.5589 13.9362L78.2978 11.1269H79.5567ZM86.4258 17.131H85.1122V13.6883C85.1122 12.6142 84.7017 12.0909 83.9081 12.0909C83.1144 12.0909 82.5671 12.7794 82.5671 13.5506V17.131H81.2261V12.8345C81.2261 12.3112 81.2261 11.7328 81.1713 11.1269H82.3481L82.4029 12.0633H82.4302C82.786 11.4299 83.5249 11.0168 84.3186 11.0168C85.5774 11.0168 86.3985 11.9807 86.3985 13.5506L86.4258 17.131ZM90.093 17.131H88.752V8.34521H90.093V17.131ZM94.937 17.2687C93.1855 17.2687 92.0634 15.9467 92.0634 14.184C92.0634 12.3388 93.2129 11.0168 95.0465 11.0168C96.7706 11.0168 97.92 12.2561 97.92 14.1014C97.92 15.9467 96.7159 17.2687 94.937 17.2687ZM94.9917 11.9807C94.0339 11.9807 93.4044 12.8896 93.4044 14.1565C93.4044 15.3959 94.0339 16.3048 94.9644 16.3048C95.8948 16.3048 96.5243 15.3408 96.5243 14.129C96.5243 12.8896 95.9222 11.9807 94.9917 11.9807ZM103.147 17.131L103.038 16.4425H103.01C102.6 16.9933 102.025 17.2687 101.259 17.2687C100.191 17.2687 99.4252 16.5251 99.4252 15.506C99.4252 14.0188 100.711 13.2476 102.928 13.2476V13.1375C102.928 12.3388 102.518 11.9532 101.697 11.9532C101.095 11.9532 100.602 12.0909 100.137 12.3938L99.8631 11.5125C100.41 11.1545 101.095 10.9892 101.916 10.9892C103.476 10.9892 104.269 11.8155 104.269 13.468V15.6713C104.269 16.2772 104.297 16.7454 104.351 17.1035L103.147 17.131ZM102.956 14.129C101.478 14.129 100.739 14.487 100.739 15.3408C100.739 15.9743 101.122 16.2772 101.642 16.2772C102.326 16.2772 102.956 15.7539 102.956 15.0654V14.129ZM110.7 17.131L110.646 16.167H110.618C110.235 16.8831 109.606 17.2687 108.703 17.2687C107.252 17.2687 106.185 16.0018 106.185 14.2116C106.185 12.3388 107.28 11.0168 108.812 11.0168C109.606 11.0168 110.18 11.2922 110.509 11.843H110.536V8.34521H111.877V15.506C111.877 16.0844 111.905 16.6353 111.932 17.131H110.7ZM110.509 13.6057C110.509 12.7519 109.962 12.0358 109.113 12.0358C108.128 12.0358 107.526 12.9171 107.526 14.1565C107.526 15.3683 108.155 16.1946 109.086 16.1946C109.934 16.1946 110.509 15.451 110.509 14.5972V13.6057ZM120.279 17.2687C118.527 17.2687 117.405 15.9467 117.405 14.184C117.405 12.3388 118.555 11.0168 120.388 11.0168C122.113 11.0168 123.262 12.2561 123.262 14.1014C123.262 15.9467 122.058 17.2687 120.279 17.2687ZM120.334 11.9807C119.376 11.9807 118.774 12.8896 118.774 14.1565C118.774 15.3959 119.403 16.3048 120.334 16.3048C121.264 16.3048 121.894 15.3408 121.894 14.129C121.866 12.8896 121.264 11.9807 120.334 11.9807ZM130.405 17.131H129.064V13.6883C129.064 12.6142 128.653 12.0909 127.86 12.0909C127.066 12.0909 126.546 12.7794 126.546 13.5506V17.131H125.205V12.8345C125.205 12.3112 125.205 11.7328 125.15 11.1269H126.327L126.382 12.0633H126.409C126.765 11.4299 127.504 11.0168 128.298 11.0168C129.556 11.0168 130.377 11.9807 130.377 13.5506V17.131H130.405ZM139.326 12.1184H137.876V15.0378C137.876 15.7815 138.122 16.1395 138.642 16.1395C138.889 16.1395 139.08 16.112 139.244 16.0844L139.272 17.1035C139.025 17.2136 138.67 17.2412 138.232 17.2412C137.192 17.2412 136.562 16.6628 136.562 15.148V12.1184H135.687V11.1269H136.562V10.0253L137.876 9.63967V11.1269H139.326V12.1184ZM146.36 17.131H145.046V13.7158C145.046 12.6417 144.636 12.0909 143.842 12.0909C143.158 12.0909 142.501 12.5591 142.501 13.523V17.1585H141.187V8.34521H142.501V11.9532H142.528C142.939 11.2922 143.541 10.9617 144.335 10.9617C145.594 10.9617 146.36 11.9532 146.36 13.523V17.131ZM153.557 14.4595H149.562C149.589 15.5887 150.328 16.2497 151.45 16.2497C152.052 16.2497 152.572 16.1395 153.065 15.9743L153.284 16.9107C152.709 17.1585 152.052 17.2687 151.286 17.2687C149.425 17.2687 148.303 16.0844 148.303 14.2391C148.303 12.3938 149.425 11.0168 151.122 11.0168C152.654 11.0168 153.612 12.146 153.612 13.8811C153.612 14.0463 153.612 14.2391 153.557 14.4595ZM152.353 13.4955C152.353 12.5591 151.888 11.8981 151.04 11.8981C150.273 11.8981 149.671 12.5591 149.589 13.4955H152.353Z" fill="white"/>
</g>
<defs>
<linearGradient id="paint0_linear_349_1115" x1="125.416" y1="51.1274" x2="125.416" y2="-684.815" gradientUnits="userSpaceOnUse">
<stop stop-color="#1A1A1A" stop-opacity="0.1"/>
<stop offset="0.123" stop-color="#212121" stop-opacity="0.151"/>
<stop offset="0.308" stop-color="#353535" stop-opacity="0.227"/>
<stop offset="0.532" stop-color="#575757" stop-opacity="0.318"/>
<stop offset="0.783" stop-color="#858585" stop-opacity="0.421"/>
<stop offset="1" stop-color="#B3B3B3" stop-opacity="0.51"/>
</linearGradient>
<clipPath id="clip0_349_1115">
<rect width="171" height="51" fill="white"/>
</clipPath>
</defs>
</svg>
