<svg width="22" height="22" viewBox="0 0 22 22" fill="none" xmlns="http://www.w3.org/2000/svg">
<path fill-rule="evenodd" clip-rule="evenodd" d="M11 22C17.0751 22 22 17.0751 22 11C22 4.92487 17.0751 0 11 0C4.92487 0 0 4.92487 0 11C0 17.0751 4.92487 22 11 22ZM15.673 9.73965C16.0817 9.36815 16.1118 8.7357 15.7403 8.32704C15.3688 7.91838 14.7363 7.88827 14.3277 8.25978L9.50033 12.6483L7.673 10.987C7.26434 10.6155 6.63189 10.6457 6.26039 11.0543C5.88888 11.463 5.919 12.0954 6.32765 12.4669L8.82765 14.7397C9.20907 15.0864 9.79158 15.0864 10.173 14.7397L15.673 9.73965Z" fill="white"/>
</svg>
