<?xml version="1.0" encoding="utf-8"?>
<!-- Generator: Adobe Illustrator 16.0.0, SVG Export Plug-In . SVG Version: 6.00 Build 0)  -->
<!DOCTYPE svg PUBLIC "-//W3C//DTD SVG 1.1//EN" "http://www.w3.org/Graphics/SVG/1.1/DTD/svg11.dtd">
<svg version="1.1" id="Layer_1" xmlns="http://www.w3.org/2000/svg" xmlns:xlink="http://www.w3.org/1999/xlink" x="0px" y="0px"
	 width="128px" height="128px" viewBox="0 0 128 128" enable-background="new 0 0 128 128" xml:space="preserve">
<g>
	<g>
		<g>
			<rect x="70.682" fill="#282D33" width="4" height="10.443"/>
		</g>
		<g>
			
				<rect x="54.997" y="7.304" transform="matrix(0.5021 0.8648 -0.8648 0.5021 38.0351 -47.4511)" fill="#282D33" width="10.455" height="3.999"/>
		</g>
		<g>
			
				<rect x="46.25" y="17.029" transform="matrix(0.8673 0.4978 -0.4978 0.8673 16.3067 -23.1083)" fill="#282D33" width="10.484" height="4"/>
		</g>
		<g>
			<rect x="43.57" y="29.796" fill="#282D33" width="10.499" height="4"/>
		</g>
		<g>
			
				<rect x="50.922" y="38.938" transform="matrix(0.498 0.8672 -0.8672 0.498 64.8758 -23.715)" fill="#282D33" width="4" height="10.483"/>
		</g>
		<g>
			
				<rect x="91.488" y="39.715" transform="matrix(0.8672 0.4979 -0.4979 0.8672 33.6157 -42.6257)" fill="#282D33" width="10.482" height="4"/>
		</g>
		<g>
			<rect x="94.152" y="26.95" fill="#282D33" width="10.496" height="4"/>
		</g>
		<g>
			
				<rect x="93.298" y="11.32" transform="matrix(0.498 0.8672 -0.8672 0.498 62.2 -74.3245)" fill="#282D33" width="4" height="10.487"/>
		</g>
		<g>
			
				<rect x="83.517" y="2.651" transform="matrix(0.8651 0.5016 -0.5016 0.8651 15.4897 -41.8346)" fill="#282D33" width="4.001" height="10.455"/>
		</g>
	</g>
	<g>
		<path fill="#282D33" d="M92.889,119.156H64.363c-5.708,0-10.979-2.478-14.616-6.832h-7.651v-4h9.617l0.6,0.799
			c2.881,3.834,7.272,6.033,12.051,6.033l35.316-0.039c3.159,0,5.729-2.552,5.729-5.688c0-3.137-2.57-5.688-5.729-5.688v-4h6.186
			c3.161,0,5.732-2.553,5.732-5.689c0-3.138-2.571-5.69-5.732-5.69v-4h2.062c3.16,0,5.73-2.551,5.73-5.687
			c0-3.137-2.57-5.688-5.73-5.688v-4h4.124c3.157,0,5.727-2.552,5.727-5.688c0-3.136-2.569-5.687-5.727-5.687H90.4
			c-0.309,0-0.63,0.029-0.954,0.086l-0.347,0.03H77.784l3.372-11.838V35.333c0-4.207-3.45-7.63-7.691-7.63h-1.619v13.401
			l-4.284,5.973L53.483,62.373c-1.823,1.91-3.103,4.241-3.724,6.767l-0.374,1.522h-7.29v-4h4.223
			c0.883-2.616,2.333-5.021,4.247-7.025L64.534,44.46l3.312-4.637V23.844l1.877-0.116c0.233-0.017,0.377-0.025,0.521-0.025h3.221
			c6.446,0,11.691,5.217,11.691,11.63v11.114l-2.073,7.28h5.852c0.492-0.077,0.984-0.116,1.466-0.116h21.65
			c5.363,0,9.727,4.346,9.727,9.687c0,4.19-2.685,7.768-6.431,9.116c1.44,1.689,2.311,3.876,2.311,6.261
			c0,3.628-2.014,6.796-4.987,8.456c1.806,1.76,2.928,4.212,2.928,6.921c0,4.804-3.529,8.803-8.143,9.561
			c1.227,1.621,1.954,3.636,1.954,5.817c0,5.342-4.364,9.688-9.729,9.688L92.889,119.156z"/>
	</g>
	<g>
		<polygon fill="#282D33" points="36.581,128 6.223,128 6.223,124 32.581,124 32.581,67.518 6.223,67.518 6.223,63.518 
			36.581,63.518 		"/>
	</g>
	<g>
		<rect x="22.235" y="115.334" fill="#282D33" width="5.3" height="4"/>
	</g>
</g>
</svg>
