<svg width="470" height="244" viewBox="0 0 470 244" fill="none" xmlns="http://www.w3.org/2000/svg">
<rect width="470" height="244" rx="16.4431" fill="white"/>
<path d="M63.6936 38.9583L57.8151 60H52.8411L48.892 45.0176L44.762 60L39.8181 60.0301L34.1507 38.9583H38.6726L42.3805 55.2973L46.6612 38.9583H51.3639L55.4035 55.2068L59.1415 38.9583H63.6936ZM75.8548 43.0581C77.1209 43.0581 78.2463 43.3394 79.2311 43.9022C80.2159 44.4448 80.9796 45.2587 81.5222 46.344C82.0849 47.4091 82.3663 48.6953 82.3663 50.2026V60H78.1459V50.7754C78.1459 49.449 77.8143 48.4341 77.1511 47.7307C76.4878 47.0072 75.5835 46.6454 74.4379 46.6454C73.2723 46.6454 72.3478 47.0072 71.6645 47.7307C71.0013 48.4341 70.6697 49.449 70.6697 50.7754V60H66.4493V37.6921H70.6697V45.3793C71.2123 44.6558 71.9358 44.0931 72.8402 43.6911C73.7446 43.2691 74.7494 43.0581 75.8548 43.0581ZM85.2944 51.5893C85.2944 49.9012 85.626 48.4039 86.2892 47.0976C86.9725 45.7913 87.8869 44.7864 89.0325 44.083C90.1981 43.3796 91.4944 43.0279 92.9213 43.0279C94.1673 43.0279 95.2526 43.2791 96.177 43.7816C97.1216 44.284 97.8752 44.9171 98.438 45.6808V43.2992H102.689V60H98.438V57.5582C97.8953 58.342 97.1417 58.9951 96.177 59.5177C95.2325 60.0201 94.1372 60.2713 92.8911 60.2713C91.4843 60.2713 90.1981 59.9096 89.0325 59.1861C87.8869 58.4626 86.9725 57.4477 86.2892 56.1413C85.626 54.8149 85.2944 53.2976 85.2944 51.5893ZM98.438 51.6496C98.438 50.6247 98.237 49.7504 97.8351 49.0269C97.4331 48.2833 96.8905 47.7206 96.2072 47.3388C95.5239 46.9368 94.7903 46.7359 94.0065 46.7359C93.2227 46.7359 92.4992 46.9268 91.836 47.3086C91.1728 47.6905 90.6302 48.2532 90.2082 48.9968C89.8062 49.7203 89.6053 50.5845 89.6053 51.5893C89.6053 52.5942 89.8062 53.4785 90.2082 54.2422C90.6302 54.9858 91.1728 55.5585 91.836 55.9605C92.5193 56.3624 93.2428 56.5634 94.0065 56.5634C94.7903 56.5634 95.5239 56.3725 96.2072 55.9906C96.8905 55.5887 97.4331 55.0259 97.8351 54.3024C98.237 53.5589 98.438 52.6746 98.438 51.6496ZM111.724 46.766V54.8451C111.724 55.4078 111.855 55.8198 112.116 56.081C112.397 56.3222 112.86 56.4428 113.503 56.4428H115.462V60H112.809C109.252 60 107.474 58.2716 107.474 54.8149V46.766H105.484V43.2992H107.474V39.1693H111.724V43.2992H115.462V46.766H111.724ZM124.596 51.5893C124.596 49.9012 124.927 48.4039 125.591 47.0976C126.274 45.7913 127.198 44.7864 128.364 44.083C129.53 43.3796 130.826 43.0279 132.253 43.0279C133.338 43.0279 134.373 43.2691 135.358 43.7514C136.343 44.2137 137.126 44.8367 137.709 45.6205V37.6921H141.99V60H137.709V57.528C137.187 58.352 136.453 59.0152 135.509 59.5177C134.564 60.0201 133.469 60.2713 132.223 60.2713C130.816 60.2713 129.53 59.9096 128.364 59.1861C127.198 58.4626 126.274 57.4477 125.591 56.1413C124.927 54.8149 124.596 53.2976 124.596 51.5893ZM137.739 51.6496C137.739 50.6247 137.538 49.7504 137.136 49.0269C136.734 48.2833 136.192 47.7206 135.509 47.3388C134.825 46.9368 134.092 46.7359 133.308 46.7359C132.524 46.7359 131.801 46.9268 131.137 47.3086C130.474 47.6905 129.932 48.2532 129.51 48.9968C129.108 49.7203 128.907 50.5845 128.907 51.5893C128.907 52.5942 129.108 53.4785 129.51 54.2422C129.932 54.9858 130.474 55.5585 131.137 55.9605C131.821 56.3624 132.544 56.5634 133.308 56.5634C134.092 56.5634 134.825 56.3725 135.509 55.9906C136.192 55.5887 136.734 55.0259 137.136 54.3024C137.538 53.5589 137.739 52.6746 137.739 51.6496ZM153.528 60.2713C151.92 60.2713 150.473 59.9196 149.187 59.2162C147.901 58.4927 146.886 57.4778 146.142 56.1715C145.419 54.8652 145.057 53.3579 145.057 51.6496C145.057 49.9414 145.429 48.4341 146.172 47.1278C146.936 45.8214 147.971 44.8166 149.277 44.1132C150.583 43.3897 152.041 43.0279 153.648 43.0279C155.256 43.0279 156.713 43.3897 158.019 44.1132C159.326 44.8166 160.351 45.8214 161.094 47.1278C161.858 48.4341 162.24 49.9414 162.24 51.6496C162.24 53.3579 161.848 54.8652 161.064 56.1715C160.3 57.4778 159.255 58.4927 157.929 59.2162C156.623 59.9196 155.156 60.2713 153.528 60.2713ZM153.528 56.5935C154.291 56.5935 155.005 56.4127 155.668 56.0509C156.351 55.6691 156.894 55.1063 157.296 54.3627C157.698 53.6191 157.899 52.7148 157.899 51.6496C157.899 50.0619 157.477 48.8461 156.633 48.002C155.809 47.1378 154.794 46.7057 153.588 46.7057C152.382 46.7057 151.367 47.1378 150.543 48.002C149.739 48.8461 149.337 50.0619 149.337 51.6496C149.337 53.2373 149.729 54.4632 150.513 55.3274C151.317 56.1715 152.322 56.5935 153.528 56.5935ZM188.496 43.2992L178.156 67.8982H173.664L177.282 59.578L170.59 43.2992H175.322L179.633 54.9657L184.004 43.2992H188.496ZM198.187 60.2713C196.579 60.2713 195.132 59.9196 193.846 59.2162C192.56 58.4927 191.545 57.4778 190.801 56.1715C190.078 54.8652 189.716 53.3579 189.716 51.6496C189.716 49.9414 190.088 48.4341 190.831 47.1278C191.595 45.8214 192.63 44.8166 193.936 44.1132C195.243 43.3897 196.7 43.0279 198.308 43.0279C199.915 43.0279 201.372 43.3897 202.679 44.1132C203.985 44.8166 205.01 45.8214 205.754 47.1278C206.517 48.4341 206.899 49.9414 206.899 51.6496C206.899 53.3579 206.507 54.8652 205.723 56.1715C204.96 57.4778 203.915 58.4927 202.588 59.2162C201.282 59.9196 199.815 60.2713 198.187 60.2713ZM198.187 56.5935C198.951 56.5935 199.664 56.4127 200.327 56.0509C201.011 55.6691 201.553 55.1063 201.955 54.3627C202.357 53.6191 202.558 52.7148 202.558 51.6496C202.558 50.0619 202.136 48.8461 201.292 48.002C200.468 47.1378 199.453 46.7057 198.247 46.7057C197.041 46.7057 196.027 47.1378 195.203 48.002C194.399 48.8461 193.997 50.0619 193.997 51.6496C193.997 53.2373 194.389 54.4632 195.172 55.3274C195.976 56.1715 196.981 56.5935 198.187 56.5935ZM225.761 43.2992V60H221.511V57.8898C220.968 58.6133 220.255 59.1861 219.37 59.6081C218.506 60.01 217.562 60.211 216.537 60.211C215.23 60.211 214.075 59.9397 213.07 59.3971C212.065 58.8344 211.271 58.0204 210.688 56.9553C210.126 55.87 209.844 54.5838 209.844 53.0966V43.2992H214.065V52.4937C214.065 53.8201 214.396 54.8451 215.059 55.5686C215.723 56.272 216.627 56.6237 217.773 56.6237C218.938 56.6237 219.853 56.272 220.516 55.5686C221.179 54.8451 221.511 53.8201 221.511 52.4937V43.2992H225.761ZM260.26 43.2992L255.377 60H250.825L247.78 48.3336L244.735 60H240.153L235.239 43.2992H239.52L242.474 56.0208L245.67 43.2992H250.131L253.267 55.9906L256.221 43.2992H260.26ZM261.459 51.5893C261.459 49.9012 261.79 48.4039 262.454 47.0976C263.137 45.7913 264.051 44.7864 265.197 44.083C266.362 43.3796 267.659 43.0279 269.086 43.0279C270.332 43.0279 271.417 43.2791 272.341 43.7816C273.286 44.284 274.04 44.9171 274.602 45.6808V43.2992H278.853V60H274.602V57.5582C274.06 58.342 273.306 58.9951 272.341 59.5177C271.397 60.0201 270.302 60.2713 269.056 60.2713C267.649 60.2713 266.362 59.9096 265.197 59.1861C264.051 58.4626 263.137 57.4477 262.454 56.1413C261.79 54.8149 261.459 53.2976 261.459 51.5893ZM274.602 51.6496C274.602 50.6247 274.401 49.7504 273.999 49.0269C273.597 48.2833 273.055 47.7206 272.372 47.3388C271.688 46.9368 270.955 46.7359 270.171 46.7359C269.387 46.7359 268.664 46.9268 268 47.3086C267.337 47.6905 266.795 48.2532 266.373 48.9968C265.971 49.7203 265.77 50.5845 265.77 51.5893C265.77 52.5942 265.971 53.4785 266.373 54.2422C266.795 54.9858 267.337 55.5585 268 55.9605C268.684 56.3624 269.407 56.5634 270.171 56.5634C270.955 56.5634 271.688 56.3725 272.372 55.9906C273.055 55.5887 273.597 55.0259 273.999 54.3024C274.401 53.5589 274.602 52.6746 274.602 51.6496ZM292.23 43.0581C294.219 43.0581 295.827 43.6911 297.053 44.9573C298.279 46.2033 298.892 47.9517 298.892 50.2026V60H294.671V50.7754C294.671 49.449 294.34 48.4341 293.677 47.7307C293.013 47.0072 292.109 46.6454 290.963 46.6454C289.798 46.6454 288.873 47.0072 288.19 47.7307C287.527 48.4341 287.195 49.449 287.195 50.7754V60H282.975V43.2992H287.195V45.3793C287.758 44.6558 288.471 44.0931 289.336 43.6911C290.22 43.2691 291.185 43.0581 292.23 43.0581ZM307.819 46.766V54.8451C307.819 55.4078 307.95 55.8198 308.211 56.081C308.492 56.3222 308.954 56.4428 309.598 56.4428H311.557V60H308.904C305.347 60 303.568 58.2716 303.568 54.8149V46.766H301.579V43.2992H303.568V39.1693H307.819V43.2992H311.557V46.766H307.819Z" fill="#020625"/>
<path d="M91.1536 122.081H85.1724L84.1448 125H81.6988L86.8168 110.694H89.5299L94.6478 125H92.1813L91.1536 122.081ZM90.4959 120.17L88.1733 113.531L85.8302 120.17H90.4959ZM96.092 119.286C96.092 118.149 96.325 117.142 96.7909 116.265C97.2705 115.388 97.9145 114.709 98.723 114.23C99.5451 113.736 100.456 113.49 101.457 113.49C102.197 113.49 102.923 113.654 103.635 113.983C104.362 114.298 104.937 114.723 105.362 115.257V109.79H107.726V125H105.362V123.294C104.978 123.842 104.444 124.294 103.759 124.651C103.087 125.007 102.313 125.185 101.436 125.185C100.449 125.185 99.5451 124.938 98.723 124.445C97.9145 123.938 97.2705 123.239 96.7909 122.349C96.325 121.444 96.092 120.423 96.092 119.286ZM105.362 119.327C105.362 118.546 105.197 117.868 104.869 117.292C104.553 116.717 104.135 116.278 103.615 115.977C103.094 115.675 102.532 115.525 101.929 115.525C101.326 115.525 100.765 115.675 100.244 115.977C99.7232 116.265 99.2985 116.696 98.9696 117.272C98.6544 117.834 98.4969 118.505 98.4969 119.286C98.4969 120.067 98.6544 120.752 98.9696 121.341C99.2985 121.931 99.7232 122.383 100.244 122.698C100.778 122.999 101.34 123.15 101.929 123.15C102.532 123.15 103.094 122.999 103.615 122.698C104.135 122.397 104.553 121.958 104.869 121.383C105.197 120.793 105.362 120.108 105.362 119.327ZM110.022 119.286C110.022 118.149 110.255 117.142 110.721 116.265C111.201 115.388 111.845 114.709 112.653 114.23C113.475 113.736 114.386 113.49 115.387 113.49C116.127 113.49 116.853 113.654 117.565 113.983C118.292 114.298 118.867 114.723 119.292 115.257V109.79H121.656V125H119.292V123.294C118.908 123.842 118.374 124.294 117.689 124.651C117.017 125.007 116.243 125.185 115.366 125.185C114.38 125.185 113.475 124.938 112.653 124.445C111.845 123.938 111.201 123.239 110.721 122.349C110.255 121.444 110.022 120.423 110.022 119.286ZM119.292 119.327C119.292 118.546 119.128 117.868 118.799 117.292C118.484 116.717 118.066 116.278 117.545 115.977C117.024 115.675 116.462 115.525 115.859 115.525C115.257 115.525 114.695 115.675 114.174 115.977C113.653 116.265 113.229 116.696 112.9 117.272C112.585 117.834 112.427 118.505 112.427 119.286C112.427 120.067 112.585 120.752 112.9 121.341C113.229 121.931 113.653 122.383 114.174 122.698C114.708 122.999 115.27 123.15 115.859 123.15C116.462 123.15 117.024 122.999 117.545 122.698C118.066 122.397 118.484 121.958 118.799 121.383C119.128 120.793 119.292 120.108 119.292 119.327ZM141.809 125H139.466L132.416 114.333V125H130.073V110.694H132.416L139.466 121.341V110.694H141.809V125ZM155.266 119.06C155.266 119.485 155.238 119.868 155.183 120.211H146.53C146.599 121.115 146.934 121.842 147.537 122.39C148.14 122.938 148.88 123.212 149.757 123.212C151.018 123.212 151.908 122.684 152.429 121.629H154.957C154.615 122.671 153.991 123.527 153.087 124.198C152.196 124.856 151.086 125.185 149.757 125.185C148.675 125.185 147.702 124.945 146.838 124.466C145.989 123.972 145.317 123.287 144.824 122.41C144.345 121.52 144.105 120.492 144.105 119.327C144.105 118.162 144.338 117.142 144.804 116.265C145.283 115.374 145.948 114.689 146.797 114.209C147.661 113.73 148.647 113.49 149.757 113.49C150.826 113.49 151.778 113.723 152.614 114.189C153.45 114.655 154.101 115.312 154.567 116.162C155.033 116.998 155.266 117.964 155.266 119.06ZM152.82 118.32C152.806 117.457 152.498 116.765 151.895 116.244C151.292 115.723 150.545 115.463 149.654 115.463C148.846 115.463 148.154 115.723 147.578 116.244C147.003 116.751 146.66 117.443 146.551 118.32H152.82ZM172.781 113.675L169.267 125H166.8L164.519 116.635L162.237 125H159.771L156.235 113.675H158.62L160.983 122.78L163.388 113.675H165.834L168.136 122.739L170.479 113.675H172.781ZM179.091 117.827C179.091 116.429 179.413 115.175 180.057 114.065C180.714 112.955 181.598 112.092 182.708 111.476C183.832 110.845 185.058 110.53 186.387 110.53C187.908 110.53 189.258 110.907 190.436 111.66C191.629 112.4 192.492 113.456 193.026 114.826H190.21C189.84 114.072 189.326 113.51 188.669 113.14C188.011 112.77 187.251 112.585 186.387 112.585C185.442 112.585 184.599 112.798 183.859 113.223C183.119 113.647 182.537 114.257 182.112 115.052C181.701 115.847 181.495 116.772 181.495 117.827C181.495 118.882 181.701 119.807 182.112 120.601C182.537 121.396 183.119 122.013 183.859 122.451C184.599 122.876 185.442 123.088 186.387 123.088C187.251 123.088 188.011 122.903 188.669 122.534C189.326 122.164 189.84 121.602 190.21 120.848H193.026C192.492 122.218 191.629 123.273 190.436 124.013C189.258 124.753 187.908 125.123 186.387 125.123C185.044 125.123 183.818 124.815 182.708 124.198C181.598 123.568 180.714 122.698 180.057 121.588C179.413 120.478 179.091 119.224 179.091 117.827ZM194.988 119.286C194.988 118.149 195.221 117.142 195.687 116.265C196.166 115.388 196.81 114.709 197.619 114.23C198.441 113.736 199.345 113.49 200.332 113.49C201.222 113.49 201.997 113.668 202.654 114.024C203.326 114.367 203.86 114.798 204.258 115.319V113.675H206.621V125H204.258V123.315C203.86 123.849 203.319 124.294 202.634 124.651C201.949 125.007 201.168 125.185 200.291 125.185C199.318 125.185 198.427 124.938 197.619 124.445C196.81 123.938 196.166 123.239 195.687 122.349C195.221 121.444 194.988 120.423 194.988 119.286ZM204.258 119.327C204.258 118.546 204.093 117.868 203.764 117.292C203.449 116.717 203.031 116.278 202.511 115.977C201.99 115.675 201.428 115.525 200.825 115.525C200.222 115.525 199.66 115.675 199.14 115.977C198.619 116.265 198.194 116.696 197.865 117.272C197.55 117.834 197.393 118.505 197.393 119.286C197.393 120.067 197.55 120.752 197.865 121.341C198.194 121.931 198.619 122.383 199.14 122.698C199.674 122.999 200.236 123.15 200.825 123.15C201.428 123.15 201.99 122.999 202.511 122.698C203.031 122.397 203.449 121.958 203.764 121.383C204.093 120.793 204.258 120.108 204.258 119.327ZM212.042 115.319C212.385 114.744 212.837 114.298 213.399 113.983C213.974 113.654 214.652 113.49 215.434 113.49V115.915H214.837C213.919 115.915 213.221 116.148 212.741 116.614C212.275 117.08 212.042 117.888 212.042 119.039V125H209.699V113.675H212.042V115.319ZM216.806 119.286C216.806 118.149 217.039 117.142 217.505 116.265C217.985 115.388 218.629 114.709 219.437 114.23C220.259 113.736 221.171 113.49 222.171 113.49C222.911 113.49 223.637 113.654 224.35 113.983C225.076 114.298 225.651 114.723 226.076 115.257V109.79H228.44V125H226.076V123.294C225.692 123.842 225.158 124.294 224.473 124.651C223.801 125.007 223.027 125.185 222.15 125.185C221.164 125.185 220.259 124.938 219.437 124.445C218.629 123.938 217.985 123.239 217.505 122.349C217.039 121.444 216.806 120.423 216.806 119.286ZM226.076 119.327C226.076 118.546 225.912 117.868 225.583 117.292C225.268 116.717 224.85 116.278 224.329 115.977C223.808 115.675 223.247 115.525 222.644 115.525C222.041 115.525 221.479 115.675 220.958 115.977C220.437 116.265 220.013 116.696 219.684 117.272C219.369 117.834 219.211 118.505 219.211 119.286C219.211 120.067 219.369 120.752 219.684 121.341C220.013 121.931 220.437 122.383 220.958 122.698C221.493 122.999 222.054 123.15 222.644 123.15C223.247 123.15 223.808 122.999 224.329 122.698C224.85 122.397 225.268 121.958 225.583 121.383C225.912 120.793 226.076 120.108 226.076 119.327Z" fill="#020625"/>
<g clip-path="url(#clip0_806_1394)">
<path d="M54 127.5C54 126.675 53.325 126 52.5 126H39V117H66V108C66 106.35 64.65 105 63 105H39C37.335 105 36.015 106.335 36.015 108L36 126C36 127.665 37.335 129 39 129H52.5C53.325 129 54 128.325 54 127.5ZM63 111H39V108H63V111ZM63 132C62.175 132 61.5 131.325 61.5 130.5V127.5H58.5C57.675 127.5 57 126.825 57 126C57 125.175 57.675 124.5 58.5 124.5H61.5V121.5C61.5 120.675 62.175 120 63 120C63.825 120 64.5 120.675 64.5 121.5V124.5H67.5C68.325 124.5 69 125.175 69 126C69 126.825 68.325 127.5 67.5 127.5H64.5V130.5C64.5 131.325 63.825 132 63 132Z" fill="#3E85F0"/>
</g>
<path d="M84.8847 191.606V195.799H89.8176V197.71H84.8847V202.088H90.4343V204H82.5415V189.694H90.4343V191.606H84.8847ZM92.5393 198.286C92.5393 197.149 92.7722 196.142 93.2381 195.265C93.7177 194.388 94.3617 193.709 95.1702 193.23C95.9923 192.736 96.9036 192.49 97.9038 192.49C98.6438 192.49 99.37 192.654 100.083 192.983C100.809 193.298 101.384 193.723 101.809 194.257V188.79H104.173V204H101.809V202.294C101.425 202.842 100.891 203.294 100.206 203.651C99.5345 204.007 98.7603 204.185 97.8833 204.185C96.8967 204.185 95.9923 203.938 95.1702 203.445C94.3617 202.938 93.7177 202.239 93.2381 201.349C92.7722 200.444 92.5393 199.423 92.5393 198.286ZM101.809 198.327C101.809 197.546 101.645 196.868 101.316 196.292C101.001 195.717 100.583 195.278 100.062 194.977C99.5413 194.675 98.9795 194.525 98.3766 194.525C97.7737 194.525 97.2119 194.675 96.6912 194.977C96.1705 195.265 95.7457 195.696 95.4168 196.272C95.1017 196.834 94.9441 197.505 94.9441 198.286C94.9441 199.067 95.1017 199.752 95.4168 200.341C95.7457 200.931 96.1705 201.383 96.6912 201.698C97.2256 201.999 97.7874 202.15 98.3766 202.15C98.9795 202.15 99.5413 201.999 100.062 201.698C100.583 201.397 101.001 200.958 101.316 200.383C101.645 199.793 101.809 199.108 101.809 198.327ZM108.443 191.174C108.018 191.174 107.662 191.03 107.374 190.743C107.086 190.455 106.942 190.099 106.942 189.674C106.942 189.249 107.086 188.893 107.374 188.605C107.662 188.317 108.018 188.173 108.443 188.173C108.854 188.173 109.203 188.317 109.491 188.605C109.779 188.893 109.922 189.249 109.922 189.674C109.922 190.099 109.779 190.455 109.491 190.743C109.203 191.03 108.854 191.174 108.443 191.174ZM109.594 192.675V204H107.25V192.675H109.594ZM115.404 194.586V200.855C115.404 201.28 115.5 201.588 115.691 201.78C115.897 201.958 116.239 202.047 116.719 202.047H118.158V204H116.308C115.253 204 114.444 203.753 113.883 203.26C113.321 202.767 113.04 201.965 113.04 200.855V194.586H111.704V192.675H113.04V189.859H115.404V192.675H118.158V194.586H115.404ZM124.876 196.827C124.876 195.429 125.198 194.175 125.842 193.065C126.499 191.955 127.383 191.092 128.493 190.476C129.617 189.845 130.843 189.53 132.172 189.53C133.693 189.53 135.043 189.907 136.221 190.66C137.413 191.4 138.277 192.456 138.811 193.826H135.995C135.625 193.072 135.111 192.51 134.454 192.14C133.796 191.77 133.036 191.585 132.172 191.585C131.227 191.585 130.384 191.798 129.644 192.223C128.904 192.647 128.322 193.257 127.897 194.052C127.486 194.847 127.28 195.772 127.28 196.827C127.28 197.882 127.486 198.807 127.897 199.601C128.322 200.396 128.904 201.013 129.644 201.451C130.384 201.876 131.227 202.088 132.172 202.088C133.036 202.088 133.796 201.903 134.454 201.534C135.111 201.164 135.625 200.602 135.995 199.848H138.811C138.277 201.218 137.413 202.273 136.221 203.013C135.043 203.753 133.693 204.123 132.172 204.123C130.829 204.123 129.603 203.815 128.493 203.198C127.383 202.568 126.499 201.698 125.842 200.588C125.198 199.478 124.876 198.224 124.876 196.827ZM151.81 192.675V204H149.467V202.664C149.097 203.13 148.611 203.5 148.008 203.774C147.419 204.034 146.788 204.164 146.117 204.164C145.226 204.164 144.425 203.979 143.712 203.609C143.013 203.24 142.458 202.691 142.047 201.965C141.65 201.239 141.451 200.362 141.451 199.334V192.675H143.774V198.985C143.774 199.999 144.027 200.78 144.534 201.328C145.041 201.862 145.733 202.13 146.61 202.13C147.487 202.13 148.179 201.862 148.686 201.328C149.207 200.78 149.467 199.999 149.467 198.985V192.675H151.81ZM157.245 194.319C157.588 193.744 158.04 193.298 158.602 192.983C159.177 192.654 159.855 192.49 160.636 192.49V194.915H160.04C159.122 194.915 158.423 195.148 157.944 195.614C157.478 196.08 157.245 196.888 157.245 198.039V204H154.902V192.675H157.245V194.319ZM165.133 194.319C165.476 193.744 165.928 193.298 166.49 192.983C167.065 192.654 167.744 192.49 168.525 192.49V194.915H167.929C167.011 194.915 166.312 195.148 165.832 195.614C165.366 196.08 165.133 196.888 165.133 198.039V204H162.79V192.675H165.133V194.319ZM181.058 198.06C181.058 198.485 181.031 198.868 180.976 199.211H172.323C172.391 200.115 172.727 200.842 173.33 201.39C173.933 201.938 174.673 202.212 175.55 202.212C176.811 202.212 177.701 201.684 178.222 200.629H180.75C180.407 201.671 179.784 202.527 178.88 203.198C177.989 203.856 176.879 204.185 175.55 204.185C174.467 204.185 173.494 203.945 172.631 203.466C171.782 202.972 171.11 202.287 170.617 201.41C170.137 200.52 169.898 199.492 169.898 198.327C169.898 197.162 170.13 196.142 170.596 195.265C171.076 194.374 171.741 193.689 172.59 193.209C173.453 192.73 174.44 192.49 175.55 192.49C176.619 192.49 177.571 192.723 178.407 193.189C179.243 193.655 179.894 194.312 180.359 195.162C180.825 195.998 181.058 196.964 181.058 198.06ZM178.612 197.32C178.599 196.457 178.29 195.765 177.687 195.244C177.085 194.723 176.338 194.463 175.447 194.463C174.639 194.463 173.947 194.723 173.371 195.244C172.796 195.751 172.453 196.443 172.343 197.32H178.612ZM189.078 192.49C189.969 192.49 190.764 192.675 191.462 193.045C192.175 193.415 192.73 193.963 193.127 194.689C193.525 195.415 193.723 196.292 193.723 197.32V204H191.401V197.669C191.401 196.655 191.147 195.881 190.64 195.347C190.133 194.799 189.441 194.525 188.564 194.525C187.687 194.525 186.989 194.799 186.468 195.347C185.961 195.881 185.707 196.655 185.707 197.669V204H183.364V192.675H185.707V193.97C186.091 193.504 186.577 193.141 187.167 192.88C187.77 192.62 188.407 192.49 189.078 192.49ZM199.446 194.586V200.855C199.446 201.28 199.542 201.588 199.734 201.78C199.939 201.958 200.282 202.047 200.761 202.047H202.2V204H200.35C199.295 204 198.487 203.753 197.925 203.26C197.363 202.767 197.082 201.965 197.082 200.855V194.586H195.746V192.675H197.082V189.859H199.446V192.675H202.2V194.586H199.446ZM208.918 196.827C208.918 195.429 209.24 194.175 209.884 193.065C210.542 191.955 211.425 191.092 212.535 190.476C213.659 189.845 214.885 189.53 216.215 189.53C217.736 189.53 219.085 189.907 220.264 190.66C221.456 191.4 222.319 192.456 222.853 193.826H220.038C219.668 193.072 219.154 192.51 218.496 192.14C217.838 191.77 217.078 191.585 216.215 191.585C215.269 191.585 214.426 191.798 213.686 192.223C212.946 192.647 212.364 193.257 211.939 194.052C211.528 194.847 211.323 195.772 211.323 196.827C211.323 197.882 211.528 198.807 211.939 199.601C212.364 200.396 212.946 201.013 213.686 201.451C214.426 201.876 215.269 202.088 216.215 202.088C217.078 202.088 217.838 201.903 218.496 201.534C219.154 201.164 219.668 200.602 220.038 199.848H222.853C222.319 201.218 221.456 202.273 220.264 203.013C219.085 203.753 217.736 204.123 216.215 204.123C214.872 204.123 213.645 203.815 212.535 203.198C211.425 202.568 210.542 201.698 209.884 200.588C209.24 199.478 208.918 198.224 208.918 196.827ZM224.815 198.286C224.815 197.149 225.048 196.142 225.514 195.265C225.994 194.388 226.638 193.709 227.446 193.23C228.268 192.736 229.173 192.49 230.159 192.49C231.05 192.49 231.824 192.668 232.482 193.024C233.153 193.367 233.688 193.798 234.085 194.319V192.675H236.449V204H234.085V202.315C233.688 202.849 233.146 203.294 232.461 203.651C231.776 204.007 230.995 204.185 230.118 204.185C229.145 204.185 228.254 203.938 227.446 203.445C226.638 202.938 225.994 202.239 225.514 201.349C225.048 200.444 224.815 199.423 224.815 198.286ZM234.085 198.327C234.085 197.546 233.92 196.868 233.592 196.292C233.276 195.717 232.859 195.278 232.338 194.977C231.817 194.675 231.255 194.525 230.652 194.525C230.049 194.525 229.488 194.675 228.967 194.977C228.446 195.265 228.022 195.696 227.693 196.272C227.377 196.834 227.22 197.505 227.22 198.286C227.22 199.067 227.377 199.752 227.693 200.341C228.022 200.931 228.446 201.383 228.967 201.698C229.501 201.999 230.063 202.15 230.652 202.15C231.255 202.15 231.817 201.999 232.338 201.698C232.859 201.397 233.276 200.958 233.592 200.383C233.92 199.793 234.085 199.108 234.085 198.327ZM241.869 194.319C242.212 193.744 242.664 193.298 243.226 192.983C243.801 192.654 244.48 192.49 245.261 192.49V194.915H244.665C243.747 194.915 243.048 195.148 242.568 195.614C242.102 196.08 241.869 196.888 241.869 198.039V204H239.526V192.675H241.869V194.319ZM246.634 198.286C246.634 197.149 246.867 196.142 247.332 195.265C247.812 194.388 248.456 193.709 249.264 193.23C250.087 192.736 250.998 192.49 251.998 192.49C252.738 192.49 253.464 192.654 254.177 192.983C254.903 193.298 255.479 193.723 255.903 194.257V188.79H258.267V204H255.903V202.294C255.52 202.842 254.985 203.294 254.3 203.651C253.629 204.007 252.855 204.185 251.978 204.185C250.991 204.185 250.087 203.938 249.264 203.445C248.456 202.938 247.812 202.239 247.332 201.349C246.867 200.444 246.634 199.423 246.634 198.286ZM255.903 198.327C255.903 197.546 255.739 196.868 255.41 196.292C255.095 195.717 254.677 195.278 254.156 194.977C253.636 194.675 253.074 194.525 252.471 194.525C251.868 194.525 251.306 194.675 250.785 194.977C250.265 195.265 249.84 195.696 249.511 196.272C249.196 196.834 249.038 197.505 249.038 198.286C249.038 199.067 249.196 199.752 249.511 200.341C249.84 200.931 250.265 201.383 250.785 201.698C251.32 201.999 251.882 202.15 252.471 202.15C253.074 202.15 253.636 201.999 254.156 201.698C254.677 201.397 255.095 200.958 255.41 200.383C255.739 199.793 255.903 199.108 255.903 198.327Z" fill="#020625"/>
<path d="M65.875 183.5H41.125C39.6062 183.5 38.375 184.731 38.375 186.25V202.75C38.375 204.269 39.6062 205.5 41.125 205.5H65.875C67.3938 205.5 68.625 204.269 68.625 202.75V186.25C68.625 184.731 67.3938 183.5 65.875 183.5Z" stroke="#3E85F0" stroke-width="2.74052" stroke-linecap="round" stroke-linejoin="round"/>
<path d="M38.375 191.75H68.625" stroke="#3E85F0" stroke-width="2.74052" stroke-linecap="round" stroke-linejoin="round"/>
<line x1="33" y1="155.315" x2="437" y2="155.315" stroke="#FFEEEE" stroke-width="1.37026"/>
<path d="M428.75 41.25L412.25 57.75" stroke="#888B94" stroke-width="2.74052" stroke-linecap="round" stroke-linejoin="round"/>
<path d="M412.25 41.25L428.75 57.75" stroke="#888B94" stroke-width="2.74052" stroke-linecap="round" stroke-linejoin="round"/>
<defs>
<clipPath id="clip0_806_1394">
<rect width="36" height="36" fill="white" transform="translate(33 99)"/>
</clipPath>
</defs>
</svg>
