<svg width="40" height="36" viewBox="0 0 40 36" fill="none" xmlns="http://www.w3.org/2000/svg">
<path d="M35.4707 5.06746C34.5769 4.17322 33.5156 3.46384 32.3476 2.97986C31.1795 2.49587 29.9276 2.24677 28.6632 2.24677C27.3988 2.24677 26.1469 2.49587 24.9788 2.97986C23.8108 3.46384 22.7495 4.17322 21.8557 5.06746L20.0007 6.92246L18.1457 5.06746C16.3402 3.262 13.8915 2.2477 11.3382 2.2477C8.78489 2.2477 6.33616 3.262 4.5307 5.06746C2.72524 6.87292 1.71094 9.32165 1.71094 11.875C1.71094 14.4283 2.72524 16.877 4.5307 18.6825L6.3857 20.5375L20.0007 34.1525L33.6157 20.5375L35.4707 18.6825C36.3649 17.7886 37.0743 16.7274 37.5583 15.5593C38.0423 14.3913 38.2914 13.1393 38.2914 11.875C38.2914 10.6106 38.0423 9.35864 37.5583 8.19059C37.0743 7.02253 36.3649 5.96128 35.4707 5.06746V5.06746Z" stroke="#377E62" stroke-width="3" stroke-linecap="round" stroke-linejoin="round"/>
</svg>
