<svg width="171" height="51" viewBox="0 0 171 51" fill="none" xmlns="http://www.w3.org/2000/svg">
<g clip-path="url(#clip0_349_1122)">
<path d="M164.667 50.9909H6.33333C2.78667 50.9909 0 48.1869 0 44.6182V6.38156C0 2.81281 2.78667 0.00878906 6.33333 0.00878906H164.667C168.213 0.00878906 171 2.81281 171 6.38156V44.6182C171 48.1869 168.213 50.9909 164.667 50.9909Z" fill="#020625"/>
<path d="M164.667 1.02843C167.58 1.02843 169.987 3.45008 169.987 6.38156V44.6182C169.987 47.5496 167.58 49.9713 164.667 49.9713H6.33333C3.42 49.9713 1.01333 47.5496 1.01333 44.6182V6.38156C1.01333 3.45008 3.42 1.02843 6.33333 1.02843H164.667ZM164.667 0.00878906H6.33333C2.78667 0.00878906 0 2.94026 0 6.38156V44.6182C0 48.1869 2.78667 50.9909 6.33333 50.9909H164.667C168.213 50.9909 171 48.1869 171 44.6182V6.38156C171 2.94026 168.213 0.00878906 164.667 0.00878906Z" fill="#A6A6A6"/>
<path d="M60.0404 13.0097C60.0404 14.0294 59.7871 14.9216 59.1538 15.5588C58.3938 16.3236 57.5071 16.7059 56.3671 16.7059C55.2271 16.7059 54.3404 16.3236 53.5804 15.5588C52.8204 14.7941 52.4404 13.9019 52.4404 12.7548C52.4404 11.6077 52.8204 10.7155 53.5804 9.95081C54.3404 9.18608 55.2271 8.80371 56.3671 8.80371C56.8738 8.80371 57.3804 8.93117 57.8871 9.18608C58.3938 9.44099 58.7738 9.6959 59.0271 10.0783L58.3938 10.7155C57.8871 10.0783 57.2538 9.82335 56.3671 9.82335C55.6071 9.82335 54.8471 10.0783 54.3404 10.7155C53.7071 11.2254 53.4538 11.9901 53.4538 12.8823C53.4538 13.7745 53.7071 14.5392 54.3404 15.049C54.9738 15.5588 55.6071 15.9412 56.3671 15.9412C57.2538 15.9412 57.8871 15.6863 58.5204 15.049C58.9004 14.6667 59.1538 14.1568 59.1538 13.5196H56.3671V12.4999H60.0404V13.0097ZM65.8671 9.82335H62.4471V12.245H65.6138V13.1372H62.4471V15.5588H65.8671V16.5785H61.4338V8.93117H65.8671V9.82335ZM70.0471 16.5785H69.0338V9.82335H66.8804V8.93117H72.2004V9.82335H70.0471V16.5785ZM75.8738 16.5785V8.93117H76.8871V16.5785H75.8738ZM81.1938 16.5785H80.1804V9.82335H78.0271V8.93117H83.2204V9.82335H81.0671V16.5785H81.1938ZM93.2271 15.5588C92.4671 16.3236 91.5804 16.7059 90.4404 16.7059C89.3004 16.7059 88.4138 16.3236 87.6538 15.5588C86.8938 14.7941 86.5138 13.9019 86.5138 12.7548C86.5138 11.6077 86.8938 10.7155 87.6538 9.95081C88.4138 9.18608 89.3004 8.80371 90.4404 8.80371C91.5804 8.80371 92.4671 9.18608 93.2271 9.95081C93.9871 10.7155 94.3671 11.6077 94.3671 12.7548C94.3671 13.9019 93.9871 14.7941 93.2271 15.5588ZM88.4138 14.9216C88.9204 15.4314 89.6804 15.8138 90.4404 15.8138C91.2004 15.8138 91.9604 15.5588 92.4671 14.9216C92.9738 14.4117 93.3538 13.647 93.3538 12.7548C93.3538 11.8626 93.1004 11.0979 92.4671 10.5881C91.9604 10.0783 91.2004 9.6959 90.4404 9.6959C89.6804 9.6959 88.9204 9.95081 88.4138 10.5881C87.9071 11.0979 87.5271 11.8626 87.5271 12.7548C87.5271 13.647 87.7804 14.4117 88.4138 14.9216ZM95.7604 16.5785V8.93117H96.9004L100.574 14.9216V8.93117H101.587V16.5785H100.574L96.6471 10.3332V16.5785H95.7604Z" fill="white" stroke="white" stroke-width="0.25491" stroke-miterlimit="10"/>
<path d="M86.2601 27.7946C83.2201 27.7946 80.8134 30.0888 80.8134 33.2752C80.8134 36.3341 83.2201 38.7558 86.2601 38.7558C89.3001 38.7558 91.7067 36.4616 91.7067 33.2752C91.7067 29.9613 89.3001 27.7946 86.2601 27.7946ZM86.2601 36.4616C84.6134 36.4616 83.2201 35.0596 83.2201 33.1477C83.2201 31.2359 84.6134 29.8339 86.2601 29.8339C87.9067 29.8339 89.3001 31.1084 89.3001 33.1477C89.3001 35.0596 87.9067 36.4616 86.2601 36.4616ZM74.4801 27.7946C71.4401 27.7946 69.0334 30.0888 69.0334 33.2752C69.0334 36.3341 71.4401 38.7558 74.4801 38.7558C77.5201 38.7558 79.9267 36.4616 79.9267 33.2752C79.9267 29.9613 77.5201 27.7946 74.4801 27.7946ZM74.4801 36.4616C72.8334 36.4616 71.4401 35.0596 71.4401 33.1477C71.4401 31.2359 72.8334 29.8339 74.4801 29.8339C76.1267 29.8339 77.5201 31.1084 77.5201 33.1477C77.5201 35.0596 76.1267 36.4616 74.4801 36.4616ZM60.4201 29.4515V31.7457H65.8667C65.7401 33.0203 65.2334 34.0399 64.6001 34.6772C63.8401 35.4419 62.5734 36.3341 60.4201 36.3341C57.0001 36.3341 54.4667 33.6576 54.4667 30.2163C54.4667 26.775 57.1267 24.0984 60.4201 24.0984C62.1934 24.0984 63.5867 24.8631 64.6001 25.7553L66.2467 24.0984C64.8534 22.8238 63.0801 21.8042 60.5467 21.8042C55.9867 21.8042 52.0601 25.6279 52.0601 30.2163C52.0601 34.8046 55.9867 38.6283 60.5467 38.6283C63.0801 38.6283 64.8534 37.8636 66.3734 36.2067C67.8934 34.6772 68.4001 32.5105 68.4001 30.8535C68.4001 30.3437 68.4001 29.8339 68.2734 29.4515H60.4201ZM117.927 31.2359C117.42 29.9613 116.153 27.7946 113.367 27.7946C110.58 27.7946 108.3 29.9613 108.3 33.2752C108.3 36.3341 110.58 38.7558 113.62 38.7558C116.027 38.7558 117.547 37.2263 118.053 36.3341L116.28 35.0596C115.647 35.9517 114.887 36.589 113.62 36.589C112.353 36.589 111.593 36.0792 110.96 34.9321L118.18 31.8732L117.927 31.2359ZM110.58 33.0203C110.58 30.981 112.227 29.8339 113.367 29.8339C114.253 29.8339 115.14 30.3437 115.393 30.981L110.58 33.0203ZM104.627 38.2459H107.033V22.314H104.627V38.2459ZM100.827 28.9417C100.193 28.3044 99.1801 27.6671 97.9134 27.6671C95.2534 27.6671 92.7201 30.0888 92.7201 33.1477C92.7201 36.2067 95.1267 38.5009 97.9134 38.5009C99.1801 38.5009 100.193 37.8636 100.7 37.2263H100.827V37.991C100.827 40.0303 99.6867 41.1774 97.9134 41.1774C96.5201 41.1774 95.5067 40.1578 95.2534 39.2656L93.2267 40.1578C93.8601 41.5598 95.3801 43.3442 98.0401 43.3442C100.827 43.3442 103.107 41.6872 103.107 37.7361V28.0495H100.827V28.9417ZM98.0401 36.4616C96.3934 36.4616 95.0001 35.0596 95.0001 33.1477C95.0001 31.2359 96.3934 29.8339 98.0401 29.8339C99.6867 29.8339 100.953 31.2359 100.953 33.1477C100.953 35.0596 99.6867 36.4616 98.0401 36.4616ZM128.947 22.314H123.247V38.2459H125.653V32.2555H128.947C131.607 32.2555 134.14 30.3437 134.14 27.2848C134.14 24.2259 131.607 22.314 128.947 22.314ZM129.073 29.9613H125.653V24.4808H129.073C130.847 24.4808 131.86 26.0102 131.86 27.1573C131.733 28.5593 130.72 29.9613 129.073 29.9613ZM143.64 27.6671C141.867 27.6671 140.093 28.4319 139.46 30.0888L141.613 30.981C142.12 30.0888 142.88 29.8339 143.767 29.8339C145.033 29.8339 146.173 30.5986 146.3 31.8732V32.0006C145.92 31.7457 144.907 31.3634 143.893 31.3634C141.613 31.3634 139.333 32.6379 139.333 34.9321C139.333 37.0988 141.233 38.5009 143.26 38.5009C144.907 38.5009 145.667 37.7361 146.3 36.9714H146.427V38.2459H148.707V32.1281C148.453 29.3241 146.3 27.6671 143.64 27.6671ZM143.387 36.4616C142.627 36.4616 141.487 36.0792 141.487 35.0596C141.487 33.785 142.88 33.4026 144.02 33.4026C145.033 33.4026 145.54 33.6576 146.173 33.9125C145.92 35.4419 144.653 36.4616 143.387 36.4616ZM156.687 28.0495L154.027 34.9321H153.9L151.113 28.0495H148.58L152.76 37.7361L150.353 43.0892H152.76L159.22 28.0495H156.687ZM135.407 38.2459H137.813V22.314H135.407V38.2459Z" fill="white"/>
<path d="M13.1737 9.56836C12.7937 9.95073 12.667 10.588 12.667 11.3527V39.5204C12.667 40.2851 12.9203 40.9224 13.3003 41.3048L13.427 41.4322L29.1337 25.6277V25.3728L13.1737 9.56836Z" fill="url(#paint0_linear_349_1122)"/>
<path d="M34.2002 30.9812L29.0068 25.7555V25.3731L34.2002 20.1475L34.3268 20.2749L40.5335 23.8437C42.3068 24.8633 42.3068 26.5202 40.5335 27.5399L34.2002 30.9812Z" fill="url(#paint1_linear_349_1122)"/>
<path d="M34.3272 30.8536L29.0072 25.5005L13.1738 41.4324C13.8072 42.0697 14.6938 42.0697 15.8338 41.5599L34.3272 30.8536Z" fill="url(#paint2_linear_349_1122)"/>
<path d="M34.3272 20.1472L15.8338 9.56839C14.6938 8.93112 13.8072 9.05857 13.1738 9.69585L29.0072 25.5003L34.3272 20.1472Z" fill="url(#paint3_linear_349_1122)"/>
<path opacity="0.2" d="M34.2005 30.7271L15.8338 41.1784C14.8205 41.8157 13.9338 41.6882 13.3005 41.1784L13.1738 41.3059L13.3005 41.4333C13.9338 41.9431 14.8205 42.0706 15.8338 41.4333L34.2005 30.7271Z" fill="black"/>
<path opacity="0.12" d="M13.1737 41.1775C12.7937 40.7951 12.667 40.1579 12.667 39.3931V39.5206C12.667 40.2853 12.9203 40.9226 13.3003 41.305V41.1775H13.1737ZM40.5337 27.1574L34.2003 30.7262L34.327 30.8536L40.5337 27.2849C41.4203 26.775 41.8003 26.1378 41.8003 25.5005C41.8003 26.1378 41.2937 26.6476 40.5337 27.1574Z" fill="black"/>
<path opacity="0.25" d="M15.8337 9.69627L40.5337 23.8438C41.2937 24.3536 41.8003 24.8635 41.8003 25.5007C41.8003 24.8635 41.4203 24.2262 40.5337 23.7164L15.8337 9.56882C14.0603 8.54917 12.667 9.3139 12.667 11.3532V11.4806C12.667 9.56882 14.0603 8.67663 15.8337 9.69627Z" fill="white"/>
</g>
<defs>
<linearGradient id="paint0_linear_349_1122" x1="27.6137" y1="11.1106" x2="6.22324" y2="32.3674" gradientUnits="userSpaceOnUse">
<stop stop-color="#00A0FF"/>
<stop offset="0.007" stop-color="#00A1FF"/>
<stop offset="0.26" stop-color="#00BEFF"/>
<stop offset="0.512" stop-color="#00D2FF"/>
<stop offset="0.76" stop-color="#00DFFF"/>
<stop offset="1" stop-color="#00E3FF"/>
</linearGradient>
<linearGradient id="paint1_linear_349_1122" x1="42.8566" y1="25.5019" x2="12.207" y2="25.5019" gradientUnits="userSpaceOnUse">
<stop stop-color="#FFE000"/>
<stop offset="0.409" stop-color="#FFBD00"/>
<stop offset="0.775" stop-color="#FFA500"/>
<stop offset="1" stop-color="#FF9C00"/>
</linearGradient>
<linearGradient id="paint2_linear_349_1122" x1="31.448" y1="28.4269" x2="2.44229" y2="57.2531" gradientUnits="userSpaceOnUse">
<stop stop-color="#FF3A44"/>
<stop offset="1" stop-color="#C31162"/>
</linearGradient>
<linearGradient id="paint3_linear_349_1122" x1="9.24336" y1="0.23356" x2="22.1964" y2="13.1064" gradientUnits="userSpaceOnUse">
<stop stop-color="#32A071"/>
<stop offset="0.069" stop-color="#2DA771"/>
<stop offset="0.476" stop-color="#15CF74"/>
<stop offset="0.801" stop-color="#06E775"/>
<stop offset="1" stop-color="#00F076"/>
</linearGradient>
<clipPath id="clip0_349_1122">
<rect width="171" height="51" fill="white"/>
</clipPath>
</defs>
</svg>
