<svg width="18" height="22" viewBox="0 0 18 22" fill="none" xmlns="http://www.w3.org/2000/svg">
<path d="M9 15C9.5523 15 10 14.5523 10 14C10 13.4477 9.5523 13 9 13C8.4477 13 8 13.4477 8 14C8 14.5523 8.4477 15 9 15Z" stroke="#3E85F0" stroke-width="2" stroke-linecap="round" stroke-linejoin="round"/>
<path d="M9 15V17" stroke="#3E85F0" stroke-width="2" stroke-linecap="round" stroke-linejoin="round"/>
<path d="M16 9H2C1.44772 9 1 9.44772 1 10V20C1 20.5523 1.44772 21 2 21H16C16.5523 21 17 20.5523 17 20V10C17 9.44772 16.5523 9 16 9Z" stroke="#3E85F0" stroke-width="2" stroke-linecap="round" stroke-linejoin="round"/>
<path d="M14 8V6C14 3.23858 11.7614 1 9 1C6.23858 1 4 3.23858 4 6V9" stroke="#3E85F0" stroke-width="2" stroke-linecap="round" stroke-linejoin="round"/>
</svg>
