<svg width="96" height="24" viewBox="0 0 96 24" fill="none" xmlns="http://www.w3.org/2000/svg">
<path d="M36.5009 6.64691V23.8046H32.3215V16.7411H25.82V23.8046H21.6406V6.64691H25.82V13.3682H32.3215V6.64691H36.5009Z" fill="#1E0404"/>
<path d="M40.6414 8.74891C39.9081 8.74891 39.3053 8.53708 38.8329 8.11345C38.3766 7.6735 38.1484 7.13579 38.1484 6.50033C38.1484 5.84858 38.3766 5.31087 38.8329 4.88721C39.3053 4.44729 39.9081 4.22729 40.6414 4.22729C41.3584 4.22729 41.9451 4.44729 42.4011 4.88721C42.8738 5.31087 43.11 5.84858 43.11 6.50033C43.11 7.13579 42.8738 7.6735 42.4011 8.11345C41.9451 8.53708 41.3584 8.74891 40.6414 8.74891ZM42.7189 10.1665V23.8047H38.5395V10.1665H42.7189Z" fill="#1E0404"/>
<path d="M52.3726 20.2606V23.8047H50.2463C48.7308 23.8047 47.5495 23.4381 46.7025 22.7048C45.8551 21.9554 45.4315 20.7413 45.4315 19.0629V13.6372H43.7695V10.1665H45.4315V6.84253H49.6109V10.1665H52.3482V13.6372H49.6109V19.1121C49.6109 19.5193 49.7086 19.8126 49.904 19.9919C50.0997 20.1709 50.4256 20.2606 50.8819 20.2606H52.3726Z" fill="#1E0404"/>
<path d="M66.5777 16.7655C66.5777 17.1566 66.5533 17.5641 66.5044 17.9876H57.0456C57.1108 18.835 57.3798 19.4867 57.8522 19.943C58.341 20.3829 58.9358 20.6027 59.6363 20.6027C60.6794 20.6027 61.4043 20.1628 61.8118 19.283H66.2599C66.0317 20.1792 65.6162 20.9858 65.0134 21.7027C64.4269 22.4196 63.6856 22.9816 62.7893 23.3891C61.8931 23.7966 60.8912 24 59.7832 24C58.447 24 57.2574 23.715 56.2146 23.1446C55.1719 22.5745 54.3572 21.7596 53.7705 20.7004C53.184 19.6416 52.8906 18.4031 52.8906 16.9853C52.8906 15.5679 53.176 14.3296 53.746 13.2705C54.3328 12.2113 55.1474 11.3966 56.1902 10.8263C57.233 10.256 58.4306 9.97089 59.7832 9.97089C61.1029 9.97089 62.2762 10.2479 63.3025 10.8019C64.3292 11.3559 65.1275 12.1462 65.6978 13.1727C66.2843 14.1992 66.5777 15.3968 66.5777 16.7655ZM62.3006 15.6656C62.3006 14.9487 62.056 14.3785 61.5673 13.9548C61.0785 13.5312 60.4673 13.3193 59.7343 13.3193C59.0335 13.3193 58.439 13.523 57.9499 13.9303C57.4775 14.3377 57.1841 14.9161 57.07 15.6656H62.3006Z" fill="#1E0404"/>
<path d="M66.9746 16.9853C66.9746 15.5679 67.2596 14.3296 67.83 13.2705C68.4165 12.2113 69.2231 11.3966 70.2498 10.8263C71.2925 10.256 72.4818 9.97089 73.818 9.97089C75.5288 9.97089 76.9546 10.419 78.0951 11.3152C79.2522 12.2113 80.0097 13.4741 80.3683 15.1035H75.9199C75.5452 14.0607 74.8203 13.5393 73.7447 13.5393C72.9789 13.5393 72.3677 13.8408 71.9117 14.4436C71.4554 15.0302 71.2273 15.8773 71.2273 16.9853C71.2273 18.0933 71.4554 18.9491 71.9117 19.5519C72.3677 20.1384 72.9789 20.4318 73.7447 20.4318C74.8203 20.4318 75.5452 19.9102 75.9199 18.8675H80.3683C80.0097 20.4642 79.2522 21.7191 78.0951 22.6314C76.9382 23.544 75.5128 24 73.818 24C72.4818 24 71.2925 23.715 70.2498 23.1446C69.2231 22.5745 68.4165 21.7596 67.83 20.7004C67.2596 19.6416 66.9746 18.4031 66.9746 16.9853Z" fill="#1E0404"/>
<path d="M90.0102 10.0199C91.5745 10.0199 92.8291 10.5413 93.7741 11.5841C94.7192 12.6107 95.1919 14.0283 95.1919 15.837V23.8047H91.0369V16.399C91.0369 15.4867 90.8004 14.7778 90.328 14.2727C89.8553 13.7675 89.22 13.515 88.4215 13.515C87.6233 13.515 86.9876 13.7675 86.5153 14.2727C86.0426 14.7778 85.8064 15.4867 85.8064 16.399V23.8047H81.627V5.71826H85.8064V11.9996C86.2299 11.3968 86.8083 10.9161 87.5416 10.5576C88.275 10.1991 89.0979 10.0199 90.0102 10.0199Z" fill="#1E0404"/>
<path d="M0 14.8361V0H4.94642V7.62646C5.80973 7.29319 6.74791 7.11048 7.72879 7.11048C11.9973 7.11048 15.4575 10.5708 15.4575 14.8393V23.8047H10.5111V14.8393C10.5111 13.3026 9.26542 12.0569 7.72879 12.0569C6.1928 12.0569 4.9475 13.3015 4.94642 14.8372C4.94642 14.8379 4.94642 14.8386 4.94642 14.8393V23.8047H0V14.8393C0 14.8382 0 14.8371 0 14.8361Z" fill="#815FF7"/>
<path d="M10.5117 4.94642V0H15.458V4.94642H10.5117Z" fill="#815FF7"/>
</svg>
