<svg width="117" height="24" viewBox="0 0 117 24" fill="none" xmlns="http://www.w3.org/2000/svg">
<path d="M94.6426 1.10345V22.6207H97.7918V1.10345H94.6426Z" fill="black"/>
<path fill-rule="evenodd" clip-rule="evenodd" d="M66.1673 22.9675C64.9245 22.9675 63.8864 22.6781 63.0528 22.0991C62.9615 22.0359 62.8729 21.97 62.7866 21.9016V22.6202H60.0078V1.45032H63.1802V10.5195C63.9584 10.0191 64.8999 9.76888 66.005 9.76888C67.2015 9.76888 68.2434 10.0545 69.1311 10.6256C70.0188 11.1968 70.7057 11.9802 71.1918 12.9759C71.6859 13.9639 71.9328 15.0947 71.9328 16.3681C71.9328 17.6186 71.6897 18.7416 71.2034 19.7375C70.7251 20.733 70.0533 21.5204 69.1891 22.0991C68.3245 22.6781 67.3173 22.9675 66.1673 22.9675ZM63.0644 14.3769C62.879 14.9479 62.7866 15.6117 62.7866 16.3681C62.7866 17.1245 62.879 17.7885 63.0644 18.3595C63.2495 18.9308 63.5507 19.3744 63.9673 19.6911C64.3918 20.0075 64.9554 20.1656 65.6577 20.1656C66.3369 20.1656 66.8928 19.9959 67.3251 19.6564C67.7573 19.3168 68.0776 18.8613 68.2859 18.29C68.4944 17.7113 68.5984 17.0707 68.5984 16.3681C68.5984 15.6735 68.4906 15.0406 68.2743 14.4696C68.0583 13.8906 67.7226 13.4313 67.2671 13.0917C66.8194 12.7444 66.2442 12.5707 65.5419 12.5707C64.8859 12.5707 64.3532 12.7289 63.9444 13.0454C63.543 13.3618 63.2495 13.8056 63.0644 14.3769Z" fill="black"/>
<path d="M55.0293 15.233V22.6197H58.1783V14.3996C58.1783 13.0333 57.8116 11.9296 57.0784 11.0882C56.3529 10.2392 55.2762 9.8147 53.8483 9.8147C53.0147 9.8147 52.2544 9.99994 51.5675 10.3704C50.9385 10.7063 50.4254 11.168 50.0282 11.7554C49.7319 11.2223 49.3225 10.7838 48.8003 10.4399C48.1752 10.0231 47.3725 9.8147 46.3923 9.8147C45.5355 9.8147 44.7598 10.0038 44.0651 10.382C43.5402 10.671 43.0963 11.0389 42.7336 11.4857V10.1157H39.9551V22.6197H43.1272V15.0479C43.1272 14.3301 43.3242 13.7473 43.7178 13.2996C44.1192 12.8442 44.6478 12.6165 45.3038 12.6165C45.9909 12.6165 46.5272 12.8481 46.9132 13.3112C47.3068 13.7666 47.5038 14.4073 47.5038 15.233V22.6197H50.6527V15.0479C50.6527 14.5692 50.7416 14.1485 50.9192 13.7859C51.1043 13.4154 51.3589 13.1298 51.6834 12.9291C52.0075 12.7207 52.3896 12.6165 52.8296 12.6165C53.5165 12.6165 54.0527 12.8481 54.4387 13.3112C54.8323 13.7666 55.0293 14.4073 55.0293 15.233Z" fill="black"/>
<path d="M28.6727 22.494C29.2901 22.8259 30.089 22.992 31.0694 22.992C32.2964 22.992 33.3116 22.7258 34.1144 22.1931C34.4953 21.9429 34.831 21.6557 35.1215 21.3321V22.6215H37.9003V10.1175H34.7279V16.462C34.7279 17.2339 34.639 17.859 34.4617 18.3376C34.2917 18.8085 34.0719 19.1674 33.8015 19.4143C33.5315 19.6538 33.2421 19.8157 32.9334 19.9007C32.6247 19.9856 32.335 20.0281 32.065 20.0281C31.3935 20.0281 30.8724 19.8775 30.5019 19.5765C30.1392 19.2756 29.8768 18.9012 29.7146 18.4535C29.5527 18.0058 29.4561 17.5619 29.4253 17.1219C29.3944 16.6745 29.3789 16.3078 29.3789 16.022V10.1175H26.1836V17.1335C26.1836 17.342 26.1988 17.6739 26.2297 18.1294C26.2606 18.5848 26.3494 19.0902 26.4961 19.646C26.6426 20.1939 26.8859 20.7227 27.2255 21.2323C27.5728 21.7415 28.0553 22.1622 28.6727 22.494Z" fill="black"/>
<path d="M73.3223 10.1156V22.6196H76.4944V16.2287C76.4944 15.7501 76.5601 15.3217 76.6914 14.9435C76.8227 14.5575 77.0155 14.2257 77.2701 13.9479C77.525 13.6622 77.8376 13.4345 78.2081 13.2648C78.5785 13.0872 78.9915 12.983 79.447 12.9521C79.9098 12.9136 80.3151 12.9483 80.6624 13.0563V10.1156C80.2842 10.0693 79.906 10.0616 79.5278 10.0925C79.1496 10.1156 78.783 10.1812 78.4279 10.2893C78.0729 10.3896 77.7449 10.5324 77.4439 10.7176C77.0503 10.9492 76.7184 11.2425 76.4483 11.5976C76.3203 11.7656 76.2045 11.9424 76.1008 12.1277V10.1156H73.3223Z" fill="black"/>
<path fill-rule="evenodd" clip-rule="evenodd" d="M87.2939 22.9665C86.0125 22.9665 84.8817 22.6925 83.9016 22.1444C82.9289 21.5888 82.1648 20.8285 81.6092 19.8636C81.061 18.8912 80.7871 17.7797 80.7871 16.5292C80.7871 15.1632 81.0572 13.9745 81.5976 12.9633C82.1377 11.9522 82.8826 11.1687 83.8321 10.613C84.7813 10.0496 85.8737 9.76782 87.1085 9.76782C88.4208 9.76782 89.5361 10.0766 90.4544 10.6941C91.373 11.3115 92.0522 12.1798 92.4922 13.299C92.9322 14.4183 93.0867 15.7342 92.9554 17.247H84.1755C84.2737 17.9976 84.5068 18.6073 84.874 19.0763C85.3835 19.7094 86.1284 20.0258 87.1085 20.0258C87.7261 20.0258 88.2547 19.8906 88.6947 19.6205C89.1347 19.3505 89.4704 18.9607 89.7019 18.4512L92.8511 19.3543C92.3802 20.4967 91.6354 21.3841 90.6166 22.017C89.6056 22.6501 88.498 22.9665 87.2939 22.9665ZM89.2274 13.3454C89.4964 13.711 89.677 14.2321 89.7692 14.9083H84.2583C84.381 14.3309 84.5863 13.8561 84.874 13.4843C85.3835 12.8282 86.1747 12.5002 87.2475 12.5002C88.1661 12.5002 88.826 12.7819 89.2274 13.3454Z" fill="black"/>
<path d="M100.336 22.6207V1.10345H103.485V22.6207H100.336Z" fill="black"/>
<path fill-rule="evenodd" clip-rule="evenodd" d="M106.993 22.457C107.618 22.7965 108.378 22.9665 109.273 22.9665C110.354 22.9665 111.246 22.7811 111.948 22.4106C112.508 22.1124 113.036 21.6705 113.534 21.0843V22.6192H116.29V14.9778C116.29 14.4067 116.267 13.8895 116.22 13.4264C116.174 12.9633 116.027 12.5002 115.78 12.0371C115.34 11.2035 114.692 10.6169 113.835 10.2773C112.978 9.93764 111.998 9.76782 110.894 9.76782C109.389 9.76782 108.201 10.092 107.328 10.7404C106.456 11.3887 105.862 12.23 105.545 13.2643L108.394 14.1673C108.594 13.5962 108.945 13.1987 109.447 12.9749C109.949 12.751 110.431 12.6391 110.894 12.6391C111.728 12.6391 112.322 12.8128 112.677 13.1601C112.956 13.4329 113.126 13.8269 113.185 14.3425C112.652 14.4233 112.147 14.5 111.67 14.5725C110.86 14.6884 110.134 14.812 109.494 14.943C108.853 15.0743 108.301 15.225 107.838 15.3946C107.166 15.6415 106.63 15.9505 106.228 16.321C105.835 16.6837 105.549 17.1041 105.372 17.5827C105.194 18.0614 105.105 18.5902 105.105 19.169C105.105 19.8636 105.264 20.5003 105.58 21.0793C105.904 21.6503 106.375 22.1096 106.993 22.457ZM111.404 20.1877C111.01 20.3885 110.524 20.489 109.945 20.489C109.582 20.489 109.27 20.4349 109.007 20.3267C108.745 20.2186 108.54 20.0644 108.394 19.8636C108.255 19.6553 108.185 19.4081 108.185 19.1226C108.185 18.9143 108.228 18.7251 108.313 18.5554C108.405 18.3855 108.544 18.2313 108.729 18.0923C108.922 17.9455 109.173 17.8106 109.482 17.687C109.752 17.5866 110.065 17.4939 110.42 17.4092C110.775 17.3243 111.242 17.2316 111.82 17.1312C112.193 17.0619 112.638 16.9827 113.157 16.8942C113.149 17.1143 113.136 17.3632 113.117 17.6407C113.094 18.0884 113.001 18.4821 112.84 18.8216C112.755 18.999 112.592 19.2192 112.353 19.4815C112.122 19.7438 111.805 19.9794 111.404 20.1877Z" fill="black"/>
<path fill-rule="evenodd" clip-rule="evenodd" d="M8.80368 10.2069H0.251953V13.931C0.251953 19.4919 4.75998 24 10.3209 24C15.8819 24 20.39 19.4919 20.39 13.931V10.2069H11.5623V4.27586C11.5623 1.91437 9.64792 0 7.28644 0C4.92495 0 3.01057 1.91437 3.01057 4.27586H5.76919C5.76919 3.4379 6.4485 2.75862 7.28644 2.75862C8.12439 2.75862 8.80368 3.4379 8.80368 4.27586V10.2069ZM8.80368 12.9655V18.2069H11.5623V12.9655H17.6314V13.931C17.6314 17.9686 14.3583 21.2414 10.3209 21.2414C6.28354 21.2414 3.01057 17.9686 3.01057 13.931V12.9655H8.80368Z" fill="#EE1B23"/>
</svg>
