<svg width="191" height="45" viewBox="0 0 191 45" fill="none" xmlns="http://www.w3.org/2000/svg">
<path d="M72.6771 35.6312C70.1694 35.6312 67.9525 35.1387 66.0265 34.1536C64.1005 33.1458 62.6116 31.7238 61.5591 29.8876C60.5067 28.0513 59.9805 25.8904 59.9805 23.4048C59.9805 20.9191 60.5067 18.7582 61.5591 16.922C62.6116 15.0633 64.1005 13.6414 66.0265 12.6561C67.9525 11.6484 70.1694 11.1445 72.6771 11.1445C74.3792 11.1445 75.8795 11.3237 77.1782 11.682C78.4997 12.0179 79.7087 12.5553 80.8058 13.2943V18.1648C79.8207 17.3586 78.69 16.7764 77.4136 16.4181C76.1595 16.0374 74.7265 15.8471 73.1141 15.8471C71.6138 15.8471 70.2586 16.1606 69.0496 16.7876C67.8629 17.3922 66.9224 18.2655 66.2282 19.4076C65.534 20.5496 65.1867 21.882 65.1867 23.4048C65.1867 24.9499 65.5003 26.3047 66.1271 27.4691C66.7767 28.6112 67.6835 29.4957 68.8479 30.1227C70.0123 30.7497 71.3561 31.0632 72.8788 31.0632C74.2672 31.0632 75.4762 30.8169 76.5063 30.3242V25.7896H72.7108V22.0276H81.444V33.3475C79.2271 34.8701 76.3052 35.6312 72.6771 35.6312Z" fill="white"/>
<path d="M82.623 19.005H87.527V21.3227C88.1766 20.539 89.0834 19.9455 90.2478 19.5425C91.4122 19.117 92.7337 18.9043 94.2113 18.9043V22.7671C92.6663 22.7671 91.3002 23.0022 90.1135 23.4725C88.9491 23.9427 88.1429 24.6593 87.695 25.6222V35.1283H82.623V19.005Z" fill="white"/>
<path d="M103.958 35.6315C100.868 35.6315 98.4379 34.8927 96.669 33.4146C94.9001 31.9145 94.0156 29.8207 94.0156 27.1335C94.0156 24.4687 94.7995 22.3638 96.3668 20.8187C97.9568 19.2735 100.218 18.501 103.152 18.501C105.078 18.501 106.712 18.8593 108.056 19.5758C109.399 20.2924 110.419 21.2889 111.113 22.5653C111.807 23.8193 112.154 25.2413 112.154 26.8312V28.8802H98.8527C99.2109 30.9404 101.136 31.9704 104.63 31.9704C105.66 31.9704 106.724 31.8809 107.821 31.7017C108.918 31.5226 109.87 31.2762 110.676 30.9627V34.5231C109.892 34.859 108.885 35.1281 107.653 35.3292C106.421 35.5309 105.19 35.6315 103.958 35.6315ZM107.35 25.5884C107.284 24.5135 106.88 23.685 106.141 23.1028C105.403 22.4981 104.383 22.1958 103.085 22.1958C101.808 22.1958 100.8 22.4981 100.062 23.1028C99.3229 23.7074 98.9196 24.5359 98.8527 25.5884H107.35Z" fill="white"/>
<path d="M122.552 35.6315C119.462 35.6315 117.032 34.8927 115.263 33.4146C113.494 31.9145 112.609 29.8207 112.609 27.1335C112.609 24.4687 113.393 22.3638 114.961 20.8187C116.551 19.2735 118.813 18.501 121.746 18.501C123.672 18.501 125.307 18.8593 126.65 19.5758C127.994 20.2924 129.012 21.2889 129.707 22.5653C130.401 23.8193 130.748 25.2413 130.748 26.8312V28.8802H117.446C117.805 30.9404 119.731 31.9704 123.224 31.9704C124.254 31.9704 125.318 31.8809 126.415 31.7017C127.512 31.5226 128.464 31.2762 129.27 30.9627V34.5231C128.486 34.859 127.479 35.1281 126.247 35.3292C125.015 35.5309 123.784 35.6315 122.552 35.6315ZM125.945 25.5884C125.877 24.5135 125.474 23.685 124.736 23.1028C123.996 22.4981 122.978 22.1958 121.679 22.1958C120.403 22.1958 119.395 22.4981 118.656 23.1028C117.917 23.7074 117.514 24.5359 117.446 25.5884H125.945Z" fill="white"/>
<path d="M131.871 19.0038H136.775V20.9856C137.514 20.1571 138.387 19.5413 139.395 19.1382C140.425 18.7127 141.5 18.5 142.62 18.5C144.814 18.5 146.449 19.0934 147.524 20.2802C148.621 21.4447 149.17 23.0234 149.17 25.0164V35.1271H144.098V25.5874C144.098 23.5048 143.135 22.4636 141.209 22.4636C140.358 22.4636 139.563 22.6763 138.824 23.1018C138.085 23.5048 137.458 24.1095 136.943 24.9156V35.1271H131.871V19.0038Z" fill="white"/>
<path d="M153.647 16.5187C152.864 16.5187 152.203 16.2612 151.666 15.7461C151.128 15.2311 150.859 14.5817 150.859 13.7979C150.859 13.0365 151.128 12.3983 151.666 11.8833C152.203 11.3459 152.864 11.0771 153.647 11.0771C154.431 11.0771 155.091 11.3459 155.629 11.8833C156.167 12.3983 156.435 13.0365 156.435 13.7979C156.435 14.5817 156.167 15.2311 155.629 15.7461C155.091 16.2612 154.431 16.5187 153.647 16.5187ZM151.094 19.0043H156.2V35.1275H151.094V19.0043Z" fill="white"/>
<path d="M164.849 35.6315C163.64 35.6315 162.342 35.4972 160.953 35.2287C159.587 34.9824 158.512 34.6241 157.729 34.1539V30.1902C158.624 30.7276 159.699 31.1643 160.953 31.5002C162.207 31.8361 163.372 32.004 164.446 32.004C165.365 32.004 166.037 31.9257 166.462 31.7689C166.887 31.6121 167.1 31.321 167.1 30.8956C167.1 30.5597 166.977 30.291 166.731 30.0894C166.484 29.8655 166.103 29.6751 165.589 29.5184C165.096 29.3392 164.267 29.0817 163.103 28.7458C161.737 28.3428 160.662 27.9397 159.878 27.5366C159.117 27.1111 158.535 26.5849 158.132 25.9579C157.751 25.3309 157.561 24.5247 157.561 23.5394C157.561 21.8599 158.221 20.6059 159.543 19.7774C160.886 18.9264 162.7 18.501 164.984 18.501C166.103 18.501 167.257 18.6241 168.444 18.8705C169.653 19.0944 170.582 19.3967 171.232 19.7774V23.6402C170.582 23.2147 169.731 22.8676 168.679 22.5989C167.649 22.3302 166.641 22.1958 165.656 22.1958C164.737 22.1958 164.021 22.2854 163.506 22.4646C163.014 22.6437 162.767 22.9796 162.767 23.4723C162.767 23.8977 163.002 24.2224 163.472 24.4464C163.965 24.6703 164.872 24.9502 166.193 25.2861L166.865 25.454C168.276 25.8347 169.373 26.2602 170.157 26.7305C170.94 27.1783 171.489 27.7269 171.803 28.3763C172.139 29.0033 172.307 29.7983 172.307 30.7612C172.307 32.2393 171.668 33.426 170.392 34.3219C169.116 35.195 167.268 35.6315 164.849 35.6315Z" fill="white"/>
<path d="M173.479 10.3047H178.55V20.8519C179.312 20.0681 180.174 19.4859 181.137 19.1052C182.1 18.7021 183.13 18.5006 184.227 18.5006C186.422 18.5006 188.057 19.094 189.131 20.2808C190.228 21.4453 190.777 23.024 190.777 25.017V35.1277H185.705V25.588C185.705 23.5054 184.742 22.4642 182.817 22.4642C181.965 22.4642 181.171 22.6769 180.432 23.1024C179.693 23.5054 179.066 24.1101 178.55 24.9162V35.1277H173.479V10.3047Z" fill="white"/>
<path fill-rule="evenodd" clip-rule="evenodd" d="M35.86 11.1379C35.86 17.0794 31.0438 21.896 25.1023 21.896C19.1607 21.896 14.3442 17.0794 14.3442 11.1379C14.3442 5.19642 19.1607 0.379883 25.1023 0.379883C31.0438 0.379883 35.86 5.19642 35.86 11.1379ZM0.0781776 21.1141C11.7988 20.3241 22.0137 29.0993 22.9652 40.845C23.0638 42.0621 23.059 43.2634 22.9584 44.4412C11.2377 45.2313 1.02284 36.456 0.0713473 24.7104C-0.0271832 23.4934 -0.0224919 22.2917 0.0781776 21.1141ZM30.5418 44.03C42.2872 43.0785 51.0625 32.8635 50.2725 21.1429C49.0947 21.0422 47.8934 21.0375 46.6763 21.1361C34.9306 22.0876 26.1555 32.3024 26.9455 44.0231C28.1231 44.1238 29.3247 44.1287 30.5418 44.03Z" fill="white"/>
</svg>
