<svg width="184" height="45" viewBox="0 0 184 45" fill="none" xmlns="http://www.w3.org/2000/svg">
<path d="M8.70923 0H1.14534C0.739296 0 0.410156 0.32914 0.410156 0.735179V14.9881L8.70923 0Z" fill="white"/>
<path d="M0.410156 19.5725C0.43405 19.5735 0.458164 19.5741 0.482498 19.5741H12.0144C12.917 19.5741 13.6263 20.3452 13.5493 21.243L12.5514 32.8807C12.4096 34.5344 14.6302 35.2084 15.4346 33.7558L27.4173 12.1148C27.9848 11.0899 27.2422 9.8331 26.0691 9.8331H14.5372C13.6346 9.8331 12.9253 9.06197 13.0023 8.16424L13.7023 0H25.3394C36.0629 0 40.87 13.488 32.5763 20.3065L26.0929 25.6369C25.6683 25.986 25.5847 26.6049 25.9013 27.0548L37.089 42.9521C37.4323 43.4395 37.0838 44.1108 36.488 44.1108H1.14534C0.739296 44.1108 0.410156 43.7814 0.410156 43.3756V19.5725Z" fill="white"/>
<path d="M112.613 25.1075V34.1989H117.635V23.9916C117.635 22.7882 117.373 21.7379 116.848 20.8408C116.344 19.9217 115.622 19.2105 114.682 18.7075C113.74 18.1822 112.646 17.9196 111.399 17.9196C110.174 17.9196 109.09 18.1822 108.15 18.7075C107.9 18.841 107.665 18.9903 107.444 19.1549C107.325 19.2436 107.211 19.337 107.1 19.4348V11.0273H102.078V34.1989H107.1V25.1075C107.1 24.5605 107.22 24.0792 107.461 23.6634C107.702 23.2257 108.03 22.8974 108.445 22.6787C108.861 22.438 109.342 22.3177 109.889 22.3177C110.677 22.3177 111.323 22.5803 111.826 23.1053C112.351 23.6087 112.613 24.276 112.613 25.1075Z" fill="white"/>
<path fill-rule="evenodd" clip-rule="evenodd" d="M56.8202 24.6481V34.1989H51.668V11.0273H61.1197C62.6518 11.0273 63.9974 11.3228 65.1572 11.9133C66.3163 12.4823 67.2248 13.281 67.8814 14.3093C68.5374 15.3376 68.8654 16.5194 68.8654 17.854C68.8654 19.2105 68.5374 20.4031 67.8814 21.4314C67.2248 22.438 66.3061 23.2257 65.1242 23.7946C64.4652 24.1119 63.7414 24.3409 62.9528 24.4812L70.3759 34.1989H64.2709L57.3599 24.6481H56.8202ZM56.8202 20.8408H60.4967C61.5251 20.8408 62.313 20.5781 62.8599 20.0529C63.4284 19.5279 63.7132 18.8167 63.7132 17.9196C63.7132 17.0883 63.4398 16.399 62.8923 15.8521C62.3454 15.3048 61.558 15.0313 60.5296 15.0313H56.8202V20.8408Z" fill="white"/>
<path fill-rule="evenodd" clip-rule="evenodd" d="M73.6901 33.5096C75.0471 34.2097 76.5895 34.5599 78.3177 34.5599C79.6531 34.5599 80.8782 34.33 81.9941 33.8706C83.1095 33.4109 84.0617 32.7217 84.8497 31.8029L82.0925 29.0458C81.6109 29.5928 81.0533 30.0086 80.4182 30.2932C79.7838 30.5555 79.0732 30.687 78.2847 30.687C77.432 30.687 76.6878 30.5119 76.0534 30.1617C75.4405 29.7899 74.9596 29.2757 74.6094 28.6192C74.4991 28.3914 74.4079 28.149 74.3348 27.8916L85.7683 27.8644C85.8559 27.4487 85.9105 27.0876 85.932 26.7814C85.9476 26.6669 85.9596 26.5553 85.9698 26.4461C85.9752 26.392 85.9788 26.3386 85.9824 26.2859C85.9878 26.2066 85.992 26.1287 85.9944 26.0523L85.9968 25.9679L85.998 25.8623C85.998 24.3086 85.6484 22.9302 84.948 21.7268C84.2698 20.5233 83.329 19.5826 82.1255 18.9041C80.9219 18.2261 79.532 17.8867 77.9573 17.8867C76.3376 17.8867 74.8828 18.2477 73.5918 18.9698C72.3007 19.6918 71.2723 20.6876 70.5066 21.9566C69.7624 23.2037 69.3906 24.626 69.3906 26.2233C69.3906 27.8205 69.7738 29.2537 70.539 30.5227C71.3053 31.7917 72.3559 32.7876 73.6901 33.5096ZM74.336 24.4445C74.3605 24.359 74.3869 24.2753 74.4151 24.1933C74.4631 24.0551 74.5165 23.9219 74.5764 23.7945C74.905 23.1381 75.3536 22.6347 75.922 22.2848C76.5127 21.9127 77.2023 21.7268 77.9896 21.7268C78.7332 21.7268 79.3569 21.891 79.8606 22.2193L79.9283 22.2596L79.9955 22.3027C80.0525 22.3405 80.107 22.3803 80.1604 22.4219C80.2126 22.4625 80.2635 22.5053 80.3127 22.5498C80.6179 22.8262 80.8608 23.1755 81.0419 23.5977C81.1522 23.8449 81.241 24.1204 81.3087 24.4246L74.336 24.4445Z" fill="white"/>
<path d="M94.8225 34.5599C93.1807 34.5599 91.6929 34.1988 90.3581 33.4768C89.0239 32.7547 87.9739 31.759 87.2075 30.4899C86.4418 29.2209 86.0586 27.7986 86.0586 26.2233C86.0586 24.626 86.4418 23.2037 87.2075 21.9566C87.9955 20.6876 89.0563 19.6918 90.3911 18.9698C91.7259 18.2477 93.2244 17.8867 94.8879 17.8867C96.1346 17.8867 97.2721 18.1057 98.3011 18.5432C98.8252 18.7508 99.3199 19.0128 99.784 19.3293C100.249 19.647 100.685 20.0194 101.091 20.4469L97.8741 23.6634C97.5024 23.2476 97.0646 22.9413 96.5615 22.7443C96.3342 22.6514 96.0908 22.5806 95.8293 22.5314C95.71 22.5088 95.5877 22.491 95.4617 22.4778C95.3316 22.464 95.1979 22.4552 95.06 22.4515C95.003 22.4497 94.946 22.4488 94.8879 22.4488C94.7104 22.4488 94.5377 22.4588 94.3698 22.4784L94.2792 22.4901L94.2229 22.4983C94.1647 22.5073 94.1065 22.5179 94.049 22.5293C93.6556 22.6084 93.2898 22.7457 92.951 22.9413C92.4041 23.2476 91.967 23.685 91.6384 24.2539C91.3319 24.8011 91.1784 25.4465 91.1784 26.1905C91.1784 26.9345 91.3319 27.591 91.6384 28.1595C91.967 28.7284 92.4155 29.177 92.984 29.5053C93.5525 29.8335 94.1875 29.9977 94.8879 29.9977C95.5445 29.9977 96.1238 29.8882 96.6269 29.6695C97.1522 29.4288 97.6007 29.1006 97.9725 28.6848L101.157 31.9013C100.325 32.7764 99.3841 33.4437 98.3341 33.9034C97.2835 34.3408 96.113 34.5599 94.8225 34.5599Z" fill="white"/>
<path fill-rule="evenodd" clip-rule="evenodd" d="M126.21 34.5265C124.744 34.5265 123.431 34.1655 122.272 33.4431C121.134 32.7211 120.226 31.7367 119.548 30.4893C118.891 29.2424 118.562 27.8199 118.562 26.2227C118.562 24.6255 118.891 23.2031 119.548 21.956C120.226 20.7087 121.134 19.7243 122.272 19.002C123.431 18.2799 124.744 17.9189 126.21 17.9189C127.282 17.9189 128.245 18.1268 129.098 18.5426C129.672 18.8152 130.175 19.1583 130.608 19.5718V18.2471H135.531V34.1983H130.608V32.9058C130.312 33.1854 129.98 33.4332 129.612 33.649C129.545 33.6885 129.476 33.7272 129.405 33.7647C129.316 33.8123 129.224 33.8583 129.131 33.9028C128.256 34.3186 127.282 34.5265 126.21 34.5265ZM127.228 29.9972C128.3 29.9972 129.164 29.647 129.82 28.9469C130.477 28.2249 130.805 27.3166 130.805 26.2227C130.805 25.8506 130.767 25.5004 130.69 25.1722C130.613 24.8439 130.499 24.5376 130.346 24.2533C130.061 23.6844 129.645 23.247 129.098 22.9407C128.803 22.756 128.48 22.6233 128.129 22.5425C127.856 22.4795 127.567 22.4482 127.26 22.4482C126.911 22.4482 126.58 22.4892 126.269 22.5712C126.079 22.6212 125.895 22.6865 125.719 22.7671C125.607 22.8186 125.497 22.8766 125.39 22.9407C124.864 23.247 124.438 23.6844 124.109 24.2533C123.803 24.8223 123.651 25.4787 123.651 26.2227C123.651 26.9447 123.803 27.5904 124.109 28.159C124.416 28.7279 124.843 29.1765 125.39 29.5047C125.936 29.8329 126.549 29.9972 127.228 29.9972Z" fill="white"/>
<path d="M142.775 18.2471H137.754V34.1983H142.775V25.4351C142.775 24.4065 143.016 23.6408 143.497 23.1375C144.001 22.6125 144.668 22.3498 145.5 22.3498C145.916 22.3498 146.288 22.4154 146.616 22.5469C146.944 22.6781 147.218 22.864 147.437 23.1047L150.423 19.3302C149.986 18.8488 149.471 18.4989 148.88 18.2799C148.312 18.0392 147.644 17.9189 146.878 17.9189C145.128 17.9189 143.761 18.4334 142.775 19.4617V18.2471Z" fill="white"/>
<path fill-rule="evenodd" clip-rule="evenodd" d="M156.761 41.353C155.01 41.353 153.468 41.0465 152.133 40.4343C150.82 39.8436 149.781 39.0011 149.015 37.9068L152.1 34.8217C152.669 35.5 153.304 36.0142 154.004 36.3644C154.726 36.714 155.59 36.8891 156.597 36.8891C157.844 36.8891 158.817 36.5833 159.517 35.9705C160.239 35.3578 160.601 34.4934 160.601 33.3775V32.37C160.259 32.6435 159.876 32.8806 159.452 33.0821C158.577 33.4979 157.603 33.7058 156.531 33.7058C155.064 33.7058 153.763 33.3559 152.625 32.6555C151.488 31.9554 150.59 31.0036 149.934 29.8001C149.277 28.5967 148.949 27.2621 148.949 25.7961C148.949 24.3081 149.277 22.9735 149.934 21.7917C150.59 20.5884 151.488 19.6476 152.625 18.9692C153.763 18.2691 155.064 17.9189 156.531 17.9189C157.625 17.9189 158.599 18.1268 159.452 18.5426C159.531 18.5777 159.607 18.6143 159.683 18.6524C160.055 18.8404 160.394 19.0626 160.699 19.3191V18.2471H165.623V33.2464C165.623 34.8875 165.239 36.3099 164.474 37.5128C163.708 38.7163 162.658 39.6571 161.323 40.3353C159.988 41.0142 158.467 41.353 156.761 41.353ZM157.483 29.2424C158.183 29.2424 158.785 29.0889 159.288 28.7827C159.417 28.7074 159.538 28.626 159.651 28.5387C159.998 28.2714 160.271 27.9479 160.469 27.5684C160.554 27.4121 160.626 27.2501 160.685 27.0824C160.762 26.8648 160.819 26.6373 160.854 26.4001C160.882 26.2054 160.896 26.004 160.896 25.7961C160.896 25.1397 160.754 24.5488 160.469 24.0238C160.207 23.4985 159.813 23.0827 159.288 22.7764C158.785 22.4702 158.183 22.317 157.483 22.317C157.276 22.317 157.077 22.3314 156.884 22.3598L156.784 22.3762L156.695 22.3926C156.504 22.431 156.321 22.4839 156.145 22.5516C156.047 22.5893 155.951 22.6318 155.858 22.6787C155.797 22.7094 155.737 22.7419 155.678 22.7764C155.153 23.0827 154.748 23.4985 154.464 24.0238C154.315 24.2973 154.205 24.5886 154.134 24.8978C154.069 25.1821 154.037 25.4816 154.037 25.7961C154.037 26.4087 154.179 26.9884 154.464 27.5356C154.748 28.0606 155.141 28.4764 155.645 28.7827C155.927 28.9472 156.234 29.0678 156.567 29.144C156.854 29.2096 157.159 29.2424 157.483 29.2424Z" fill="white"/>
<path fill-rule="evenodd" clip-rule="evenodd" d="M171.103 33.5096C172.459 34.2097 174.002 34.5599 175.73 34.5599C177.065 34.5599 178.29 34.33 179.406 33.8706C180.522 33.4109 181.473 32.7217 182.261 31.8029L179.504 29.0458C179.023 29.5928 178.465 30.0086 177.83 30.2932C177.197 30.5555 176.485 30.687 175.697 30.687C174.844 30.687 174.1 30.5119 173.465 30.1617C173.028 29.8964 172.658 29.5585 172.354 29.1481C172.306 29.0828 172.26 29.0154 172.215 28.9463C172.146 28.8418 172.081 28.7326 172.022 28.6192C171.911 28.3914 171.819 28.149 171.746 27.8916L183.18 27.8644C183.224 27.6591 183.259 27.4671 183.286 27.2885C183.314 27.1052 183.333 26.9363 183.345 26.7814C183.36 26.6657 183.372 26.5527 183.383 26.4426C183.401 26.2399 183.41 26.0464 183.41 25.8623C183.41 24.3086 183.06 22.9302 182.36 21.7268C181.681 20.5233 180.741 19.5826 179.538 18.9041C178.333 18.2261 176.945 17.8867 175.369 17.8867C173.75 17.8867 172.295 18.2477 171.003 18.9698C169.713 19.6918 168.684 20.6876 167.919 21.9566C167.175 23.2037 166.803 24.626 166.803 26.2233C166.803 27.8205 167.185 29.2537 167.952 30.5227C168.717 31.7917 169.767 32.7876 171.103 33.5096ZM171.749 24.4445C171.814 24.2144 171.894 23.9974 171.989 23.7945C172.176 23.4197 172.402 23.095 172.668 22.8204C172.761 22.7241 172.859 22.6339 172.962 22.5498C173.08 22.4535 173.203 22.365 173.334 22.2848C173.925 21.9127 174.614 21.7268 175.402 21.7268C176.146 21.7268 176.77 21.891 177.273 22.2193C177.474 22.3364 177.655 22.4757 177.817 22.6376C178.079 22.8992 178.292 23.2191 178.454 23.5977C178.564 23.8449 178.652 24.1204 178.721 24.4246L171.749 24.4445Z" fill="white"/>
</svg>
