<svg width="134" height="45" viewBox="0 0 134 45" fill="none" xmlns="http://www.w3.org/2000/svg">
<path d="M59.0877 13.0361V34.7434H53.8001V25.8069H45.5747V34.7434H40.2871V13.0361H45.5747V21.5397H53.8001V13.0361H59.0877Z" fill="white"/>
<path d="M64.3279 15.6952C63.4001 15.6952 62.6374 15.4272 62.0398 14.8912C61.4625 14.3346 61.1738 13.6543 61.1738 12.8504C61.1738 12.0258 61.4625 11.3455 62.0398 10.8095C62.6374 10.2529 63.4001 9.97461 64.3279 9.97461C65.2349 9.97461 65.9772 10.2529 66.5542 10.8095C67.1522 11.3455 67.451 12.0258 67.451 12.8504C67.451 13.6543 67.1522 14.3346 66.5542 14.8912C65.9772 15.4272 65.2349 15.6952 64.3279 15.6952ZM66.9562 17.4886V34.7431H61.6686V17.4886H66.9562Z" fill="white"/>
<path d="M79.1674 30.2582V34.7421H76.4773C74.56 34.7421 73.0655 34.2782 71.9938 33.3504C70.9217 32.4024 70.3859 30.8664 70.3859 28.743V21.8785H68.2832V17.4876H70.3859V13.2822H75.6735V17.4876H79.1366V21.8785H75.6735V28.8052C75.6735 29.3203 75.7971 29.6915 76.0443 29.9183C76.2919 30.1448 76.7041 30.2582 77.2814 30.2582H79.1674Z" fill="white"/>
<path d="M97.1405 25.8375C97.1405 26.3323 97.1096 26.8478 97.0478 27.3836H85.0809C85.1635 28.4557 85.5038 29.2802 86.1014 29.8575C86.7198 30.4141 87.4723 30.6922 88.3586 30.6922C89.6782 30.6922 90.5954 30.1356 91.1109 29.0225H96.7384C96.4498 30.1563 95.9241 31.1768 95.1614 32.0838C94.4195 32.9908 93.4815 33.7019 92.3477 34.2174C91.2138 34.7329 89.9462 34.9903 88.5444 34.9903C86.8539 34.9903 85.3489 34.6296 84.0296 33.908C82.7103 33.1868 81.6797 32.1558 80.9374 30.8158C80.1954 29.4762 79.8242 27.9093 79.8242 26.1156C79.8242 24.3223 80.1852 22.7556 80.9065 21.4157C81.6488 20.0757 82.6794 19.045 83.9987 18.3235C85.318 17.602 86.8332 17.2412 88.5444 17.2412C90.2141 17.2412 91.6984 17.5917 92.9969 18.2926C94.2959 18.9935 95.3057 19.9933 96.0274 21.292C96.7693 22.5907 97.1405 24.1059 97.1405 25.8375ZM91.7293 24.4459C91.7293 23.539 91.4199 22.8175 90.8015 22.2815C90.1832 21.7455 89.4099 21.4775 88.4826 21.4775C87.5959 21.4775 86.8437 21.7352 86.225 22.2505C85.6273 22.7659 85.2562 23.4977 85.1118 24.4459H91.7293Z" fill="white"/>
<path d="M97.6406 26.1166C97.6406 24.3233 98.0012 22.7566 98.7229 21.4167C99.4648 20.0767 100.485 19.046 101.784 18.3245C103.103 17.603 104.608 17.2422 106.299 17.2422C108.463 17.2422 110.267 17.8091 111.71 18.9429C113.174 20.0767 114.132 21.6743 114.586 23.7358H108.958C108.484 22.4165 107.567 21.7568 106.206 21.7568C105.237 21.7568 104.464 22.1382 103.887 22.9009C103.31 23.643 103.021 24.7148 103.021 26.1166C103.021 27.5184 103.31 28.601 103.887 29.3637C104.464 30.1057 105.237 30.4769 106.206 30.4769C107.567 30.4769 108.484 29.817 108.958 28.4978H114.586C114.132 30.5179 113.174 32.1055 111.71 33.2597C110.246 34.4143 108.443 34.9912 106.299 34.9912C104.608 34.9912 103.103 34.6306 101.784 33.909C100.485 33.1877 99.4648 32.1567 98.7229 30.8167C98.0012 29.4771 97.6406 27.9103 97.6406 26.1166Z" fill="white"/>
<path d="M126.786 17.3026C128.765 17.3026 130.352 17.9623 131.548 19.2816C132.743 20.5803 133.342 22.3738 133.342 24.6621V34.7426H128.085V25.3732C128.085 24.219 127.786 23.3221 127.188 22.683C126.59 22.044 125.786 21.7244 124.776 21.7244C123.766 21.7244 122.962 22.044 122.364 22.683C121.766 23.3221 121.467 24.219 121.467 25.3732V34.7426H116.18V11.8604H121.467V19.8073C122.003 19.0445 122.735 18.4364 123.663 17.9829C124.59 17.5294 125.632 17.3026 126.786 17.3026Z" fill="white"/>
<path d="M0.1875 27.7378V0.246094H9.35337V14.3781C10.9531 13.7606 12.6916 13.422 14.5092 13.422C22.4188 13.422 28.8306 19.8341 28.8306 27.7437V44.3569H19.665V27.7437C19.665 24.8962 17.3566 22.5879 14.5092 22.5879C11.6629 22.5879 9.35537 24.8942 9.35337 27.7399C9.35337 27.7412 9.35337 27.7424 9.35337 27.7437V44.3569H0.1875V27.7437C0.1875 27.7417 0.1875 27.7398 0.1875 27.7378Z" fill="white"/>
<path d="M19.6641 9.41196V0.246094H28.8297V9.41196H19.6641Z" fill="white"/>
</svg>
