<svg width="228" height="45" viewBox="0 0 228 45" fill="none" xmlns="http://www.w3.org/2000/svg">
<path fill-rule="evenodd" clip-rule="evenodd" d="M29.5942 0C25.0618 0 21.3876 3.67425 21.3876 8.2066C21.3876 12.739 25.0618 16.4132 29.5942 16.4132C34.1268 16.4132 37.8008 12.739 37.8008 8.2066C37.8008 3.67425 34.1268 0 29.5942 0ZM13.5485 15.9654C22.0911 15.9654 29.0162 22.8906 29.0162 31.4331V44.1108H21.3225V31.4331C21.3225 30.5232 21.1663 29.6502 20.8791 28.8388L9.57815 40.1398L4.13789 34.6993L15.0361 23.8013C14.5546 23.708 14.0572 23.6591 13.5485 23.6591H0.871094V15.9654H13.5485ZM45.8315 15.9654C37.2889 15.9654 30.3636 22.8906 30.3636 31.4331V44.1108H38.0573V31.4331C38.0573 30.7207 38.1532 30.0303 38.3327 29.3748L50.1543 41.1964L55.5948 35.7559L43.7732 23.9345C44.4287 23.755 45.1191 23.6591 45.8315 23.6591H58.5086V15.9654H45.8315Z" fill="white"/>
<path d="M80.6504 37.2267V6.82422H89.2607L98.4924 32.8771H99.1581V6.82422H104.085V37.2267H95.652L86.1982 11.1294H85.5769V37.2267H80.6504Z" fill="white"/>
<path d="M123.823 33.2321L125.065 33.0992L125.154 36.6942C121.781 37.3747 118.792 37.715 116.189 37.715C112.904 37.715 110.537 36.8123 109.088 35.0076C107.667 33.2025 106.957 30.3177 106.957 26.3528C106.957 18.4822 110.167 14.5469 116.588 14.5469C122.802 14.5469 125.909 17.9348 125.909 24.7107L125.598 28.1723H111.839C111.869 30.007 112.268 31.3534 113.038 32.2113C113.807 33.0696 115.242 33.4984 117.343 33.4984C119.443 33.4984 121.604 33.4099 123.823 33.2321ZM121.16 24.4444C121.16 22.2547 120.805 20.7309 120.094 19.8728C119.414 18.9852 118.245 18.5413 116.588 18.5413C114.931 18.5413 113.718 19 112.949 19.9172C112.209 20.8345 111.824 22.3435 111.795 24.4444H121.16Z" fill="white"/>
<path d="M140.279 19.1609H134.153V28.9251C134.153 30.7302 134.287 31.9284 134.553 32.5201C134.819 33.1118 135.5 33.408 136.595 33.408L140.234 33.2747L140.456 37.1359C138.473 37.5206 136.965 37.7132 135.929 37.7132C133.414 37.7132 131.683 37.1359 130.736 35.9822C129.819 34.828 129.36 32.6534 129.36 29.4579V19.1609H126.52V15.0332H129.36V8.59766H134.153V15.0332H140.279V19.1609Z" fill="white"/>
<path d="M140.297 15.0352H145.046L148.552 33.0993H149.44L153.656 15.479H158.627L162.844 33.0993H163.731L167.193 15.0352H171.986L167.282 37.2267H159.604L156.142 22.0033L152.68 37.2267H145.002L140.297 15.0352Z" fill="white"/>
<path d="M175.074 17.4318C176.613 15.5085 179.157 14.5469 182.708 14.5469C186.259 14.5469 188.788 15.5085 190.297 17.4318C191.836 19.355 192.605 22.2399 192.605 26.0866C192.605 29.933 191.866 32.8326 190.386 34.7854C188.907 36.7386 186.347 37.715 182.708 37.715C179.069 37.715 176.509 36.7386 175.03 34.7854C173.55 32.8326 172.811 29.933 172.811 26.0866C172.811 22.2399 173.565 19.355 175.074 17.4318ZM178.713 31.8562C179.394 33.04 180.726 33.6317 182.708 33.6317C184.69 33.6317 186.022 33.04 186.702 31.8562C187.383 30.6728 187.723 28.7348 187.723 26.0422C187.723 23.3495 187.353 21.441 186.614 20.3167C185.903 19.1923 184.602 18.6301 182.708 18.6301C180.814 18.6301 179.497 19.1923 178.758 20.3167C178.048 21.441 177.693 23.3495 177.693 26.0422C177.693 28.7348 178.033 30.6728 178.713 31.8562Z" fill="white"/>
<path d="M195.191 37.2266V15.0351H199.985V17.6981C202.5 16.0707 205.015 15.0203 207.53 14.5469V19.3846C204.986 19.8876 202.811 20.5386 201.006 21.3375L200.029 21.7369V37.2266H195.191Z" fill="white"/>
<path d="M213.847 37.226H209.01V5.80273H213.847V23.9554L216.599 23.6892L221.836 15.0344H227.251L220.86 25.4202L227.606 37.226H222.147L216.733 27.861L213.847 28.1717V37.226Z" fill="white"/>
</svg>
