<svg width="179" height="45" viewBox="0 0 179 45" fill="none" xmlns="http://www.w3.org/2000/svg">
<path d="M90.6492 36.3027C88.2643 36.3027 86.2165 35.8812 84.5063 35.0381C82.796 34.195 81.3988 33.0989 80.3145 31.7499C79.2548 30.4009 78.4718 28.9314 77.966 27.3415C77.4602 25.7516 77.207 24.2219 77.207 22.7525V21.9575C77.207 20.3194 77.4602 18.7054 77.966 17.1155C78.4959 15.5256 79.3029 14.0803 80.3866 12.7795C81.4709 11.4786 82.8441 10.4428 84.5063 9.67191C86.1925 8.87698 88.1799 8.47949 90.4681 8.47949C92.8529 8.47949 94.9248 8.91309 96.6836 9.78034C98.466 10.6234 99.8873 11.8279 100.947 13.3937C102.007 14.9355 102.645 16.7422 102.862 18.8139H97.6952C97.5024 17.6094 97.0687 16.5976 96.3941 15.7786C95.7441 14.9355 94.913 14.3091 93.9009 13.8996C92.8893 13.466 91.7452 13.2492 90.4681 13.2492C89.1675 13.2492 88.0112 13.478 86.9995 13.9358C85.9879 14.3694 85.1446 14.9957 84.47 15.8147C83.7954 16.6338 83.2778 17.5974 82.9162 18.7054C82.5792 19.8136 82.4104 21.0421 82.4104 22.3911C82.4104 23.692 82.5792 24.8965 82.9162 26.0045C83.2778 27.1127 83.8077 28.0883 84.5063 28.9314C85.2049 29.7505 86.06 30.3888 87.0717 30.8465C88.1073 31.3042 89.3 31.5331 90.6492 31.5331C92.6243 31.5331 94.2865 31.0512 95.6357 30.0877C97.0084 29.1 97.8395 27.727 98.129 25.9684H103.296C103.055 27.8474 102.417 29.5698 101.381 31.1356C100.345 32.7014 98.9237 33.954 97.1168 34.8935C95.3104 35.833 93.1542 36.3027 90.6492 36.3027Z" fill="white"/>
<path d="M105.674 35.6162V9.23828H110.697V35.6162H105.674ZM103.217 12.9962V9.23828H110.697V12.9962H103.217Z" fill="white"/>
<path d="M124.056 36.3025C122.322 36.3025 120.792 36.0255 119.467 35.4714C118.142 34.9174 117.022 34.1706 116.107 33.2311C115.191 32.2676 114.493 31.1835 114.011 29.979C113.553 28.7746 113.324 27.5219 113.324 26.2211V25.4623C113.324 24.1133 113.565 22.8366 114.047 21.6321C114.553 20.4035 115.264 19.3195 116.179 18.38C117.119 17.4164 118.251 16.6697 119.576 16.1397C120.901 15.5856 122.394 15.3086 124.056 15.3086C125.718 15.3086 127.212 15.5856 128.537 16.1397C129.862 16.6697 130.982 17.4164 131.897 18.38C132.837 19.3195 133.548 20.4035 134.029 21.6321C134.511 22.8366 134.752 24.1133 134.752 25.4623V26.2211C134.752 27.5219 134.511 28.7746 134.029 29.979C133.572 31.1835 132.885 32.2676 131.97 33.2311C131.054 34.1706 129.934 34.9174 128.609 35.4714C127.284 36.0255 125.766 36.3025 124.056 36.3025ZM124.056 32.0025C125.285 32.0025 126.32 31.7376 127.164 31.2076C128.007 30.6536 128.645 29.9188 129.079 29.0034C129.512 28.064 129.729 27.004 129.729 25.8237C129.729 24.6192 129.501 23.5592 129.043 22.6438C128.609 21.7043 127.959 20.9696 127.092 20.4396C126.248 19.8856 125.237 19.6086 124.056 19.6086C122.876 19.6086 121.852 19.8856 120.985 20.4396C120.142 20.9696 119.491 21.7043 119.033 22.6438C118.576 23.5592 118.347 24.6192 118.347 25.8237C118.347 27.004 118.564 28.064 118.998 29.0034C119.455 29.9188 120.105 30.6536 120.949 31.2076C121.792 31.7376 122.828 32.0025 124.056 32.0025Z" fill="white"/>
<path d="M144.029 36.2302C141.764 36.2302 140.006 35.4834 138.753 33.9899C137.525 32.4963 136.91 30.2801 136.91 27.3412V15.959H141.933V27.7748C141.933 28.9793 142.271 29.9429 142.945 30.6655C143.619 31.3642 144.535 31.7134 145.691 31.7134C146.847 31.7134 147.787 31.3401 148.51 30.5933C149.256 29.8465 149.63 28.8347 149.63 27.558V15.959H154.652V35.6159H150.678V27.2689H151.075C151.075 29.2442 150.822 30.8944 150.316 32.2193C149.81 33.5442 149.052 34.5439 148.04 35.2185C147.028 35.8929 145.763 36.2302 144.246 36.2302H144.029Z" fill="white"/>
<path d="M166.743 36.2666C165.37 36.2666 164.105 36.0136 162.949 35.5078C161.793 35.0019 160.793 34.2913 159.95 33.3759C159.107 32.4605 158.457 31.4005 157.999 30.196C157.541 28.9675 157.312 27.6426 157.312 26.2213V25.4625C157.312 24.0653 157.529 22.7524 157.963 21.5239C158.42 20.2953 159.047 19.2233 159.842 18.3079C160.661 17.3925 161.636 16.6819 162.769 16.176C163.925 15.646 165.201 15.3811 166.599 15.3811C168.141 15.3811 169.489 15.7184 170.646 16.3928C171.826 17.0432 172.766 18.0309 173.464 19.3559C174.163 20.6807 174.548 22.3429 174.621 24.3423L173.139 22.6079V9.23828H178.162V35.6162H174.187V27.2692H175.054C174.982 29.2686 174.573 30.9428 173.826 32.2919C173.079 33.6167 172.091 34.6165 170.863 35.291C169.658 35.9414 168.285 36.2666 166.743 36.2666ZM167.863 32.0389C168.851 32.0389 169.755 31.8221 170.574 31.3885C171.392 30.9308 172.043 30.2804 172.525 29.4373C173.031 28.57 173.284 27.5582 173.284 26.402V24.9566C173.284 23.8003 173.031 22.8368 172.525 22.0659C172.019 21.2709 171.357 20.6687 170.537 20.2592C169.718 19.8256 168.827 19.6088 167.863 19.6088C166.779 19.6088 165.816 19.8737 164.973 20.4037C164.153 20.9096 163.503 21.6323 163.022 22.5718C162.564 23.5112 162.335 24.6073 162.335 25.86C162.335 27.1126 162.576 28.2087 163.057 29.1482C163.539 30.0636 164.19 30.7742 165.009 31.2801C165.852 31.7859 166.804 32.0389 167.863 32.0389Z" fill="white"/>
<path d="M51.1622 44.8705C48.7736 44.8705 47.3021 43.7677 44.8977 42.469C42.4933 41.1702 35.5392 35.941 35.5392 29.4317C35.5392 25.016 34.4009 21.4445 32.4624 18.5983C30.5384 15.7739 27.9318 13.8171 25.2202 12.4357C23.9135 11.7702 22.5537 11.226 21.1996 10.7762C20.4103 10.5142 19.9522 9.6666 20.2947 8.90885C22.4654 4.10328 27.2997 0.759766 32.9155 0.759766C40.5598 0.759766 46.7571 6.95673 46.7571 14.6014C46.7571 16.2369 46.4735 17.8064 45.9526 19.2627C48.159 17.7758 50.8174 16.9082 53.678 16.9082C61.3224 16.9082 67.5192 23.1052 67.5192 30.7499C67.5192 39.9529 59.4322 44.8705 51.1622 44.8705Z" fill="white"/>
<path d="M0.617188 29.5966C0.617188 36.8928 5.42746 42.972 11.7999 44.3153C12.7835 44.6746 13.8454 44.8706 14.9532 44.8706H36.4589C37.1801 44.8706 37.4942 43.9061 36.9435 43.4401C33.1851 40.26 30.3919 35.7782 30.3919 29.4319C30.3919 25.9448 29.5088 23.405 28.2079 21.4957C26.8923 19.5644 25.0418 18.1209 22.8833 17.0211C20.7046 15.9115 18.3394 15.2046 16.0807 14.7035C15.5487 14.6364 15.0074 14.6016 14.4588 14.6016C6.81416 14.6016 0.617188 21.3151 0.617188 29.5966Z" fill="white"/>
</svg>
