<svg width="171" height="40" viewBox="0 0 171 40" fill="none" xmlns="http://www.w3.org/2000/svg">
<path d="M51.166 31.6906V27.0191H54.0131V9.46285H51.166V4.79102H62.4077V9.46285H59.5606L59.4879 27.0191H62.4077V31.6906H51.166Z" fill="white"/>
<path d="M64.9688 31.6923V12.6035H70.5896V15.5964L73.9108 12.6035H80.5904L84.6417 16.6914V31.6923H79.0208V17.6769L77.6339 16.2534H74.7503L70.5896 20.0858V31.6923H64.9688Z" fill="white"/>
<path d="M87.8136 31.689V27.5283H97.9599L99.2013 26.2874V25.3019L97.8505 23.9149H90.624L86.8281 20.3015V16.2136L90.5874 12.6367H102.815V16.7611H93.4706L92.3391 17.9655V18.659L93.6532 20.0095H100.953L104.749 23.5864V28.0757L100.99 31.689H87.8136Z" fill="white"/>
<path d="M107.121 36.7057V12.2455H112.742V14.7639L115.443 12.209H122.305L126.356 16.2969V27.2464L122.305 31.2981H115.479L112.742 28.7797V36.7057H107.121ZM116.246 27.6482H119.604L120.845 26.3707V17.1728L119.604 15.8589L116.246 15.8954L112.742 19.1803V24.3632L116.246 27.6482Z" fill="white"/>
<path d="M129.18 10.521V5.70312H134.801V10.521H129.18ZM129.18 31.6902V12.6014H134.801V31.6902H129.18Z" fill="white"/>
<path d="M138.082 31.6923V12.6035H143.703V15.7789L147.024 12.64H151.076V17.8959H146.185L143.703 20.2683V31.6923H138.082Z" fill="white"/>
<path d="M156.825 31.689L152.773 27.6377V16.6881L156.825 12.6367H166.533L170.621 16.6881V23.8419H158.394V26.032L159.854 27.4917L170.293 27.4551V31.689H156.825ZM158.358 20.1555H165.293V17.6735L163.832 16.2136L159.854 16.2501L158.358 17.6735V20.1555Z" fill="white"/>
<path d="M29.4578 5.03809H25.3758V0.379883H37.4096V12.4136H32.7512V8.33222L3.95398 37.1296L0.660156 33.8355L29.4578 5.03809Z" fill="white"/>
<path d="M3.73334 3.00293L0.439453 6.29676L12.2023 18.0596L15.4961 14.7658L3.73334 3.00293Z" fill="white"/>
<path d="M19.7305 25.5888L23.0243 22.2949L32.7522 32.0232V27.9412H37.4106V39.975H25.3768V35.3166H29.4582L19.7305 25.5888Z" fill="white"/>
</svg>
