<svg width="85" height="24" viewBox="0 0 85 24" fill="none" xmlns="http://www.w3.org/2000/svg">
<path d="M27.7695 4.58892V1.6842H42.3838V4.58892H36.7428V21.7825H33.4691V4.58892H27.7695Z" fill="black"/>
<path d="M51.3355 19.1423L52.154 19.0543L52.2123 21.4309C49.991 21.8808 48.0228 22.1056 46.3081 22.1056C44.1451 22.1056 42.5864 21.509 41.6317 20.316C40.6963 19.1227 40.2285 17.2155 40.2285 14.5945C40.2285 9.39139 42.3428 6.78986 46.5713 6.78986C50.6633 6.78986 52.7094 9.02952 52.7094 13.5088L52.5047 15.7974H43.4437C43.4633 17.0101 43.7262 17.9002 44.2329 18.4673C44.7395 19.0347 45.6847 19.3183 47.0681 19.3183C48.4517 19.3183 49.874 19.2595 51.3355 19.1423ZM49.5818 13.3328C49.5818 11.8854 49.3479 10.8781 48.8803 10.3107C48.4321 9.72392 47.6624 9.43051 46.5713 9.43051C45.4801 9.43051 44.6811 9.73369 44.1744 10.3401C43.6873 10.9465 43.434 11.944 43.4146 13.3328H49.5818Z" fill="black"/>
<path d="M54.3125 21.7829V7.11261H57.4691V8.87304C59.1253 7.79723 60.7818 7.10282 62.438 6.78986V9.98798C60.7622 10.3205 59.33 10.7509 58.1413 11.2789L57.4984 11.5431V21.7829H54.3125Z" fill="black"/>
<path d="M63.4121 21.7829V7.11261H66.5689V8.87304C68.2252 7.79723 69.8814 7.10282 71.5378 6.78986V9.98798C69.862 10.3205 68.4298 10.7509 67.2412 11.2789L66.598 11.5431V21.7829H63.4121Z" fill="black"/>
<path d="M83.3261 11.6311V18.3208C83.3456 18.7511 83.4528 19.0739 83.6477 19.289C83.8621 19.4846 84.1835 19.6118 84.6122 19.6703L84.5246 22.1056C82.8488 22.1056 81.553 21.7438 80.637 21.02C79.0783 21.7438 77.5096 22.1056 75.9313 22.1056C73.028 22.1056 71.5762 20.5507 71.5762 17.4406C71.5762 15.9539 71.9659 14.8781 72.7454 14.213C73.5442 13.548 74.7621 13.1469 76.3989 13.0101L80.1694 12.6873V11.6311C80.1694 10.8486 79.9941 10.301 79.6433 9.98798C79.312 9.67501 78.8151 9.51853 78.1526 9.51853C76.9056 9.51853 75.3467 9.59678 73.476 9.75327L72.5408 9.81194L72.4238 7.55272C74.5478 7.04415 76.4964 6.78986 78.2696 6.78986C80.0623 6.78986 81.3484 7.18106 82.1277 7.96348C82.9267 8.72634 83.3261 9.94887 83.3261 11.6311ZM76.7789 15.2692C75.4345 15.3867 74.7621 16.1202 74.7621 17.4699C74.7621 18.8195 75.3564 19.4943 76.545 19.4943C77.5193 19.4943 78.5522 19.3379 79.6433 19.0248L80.1694 18.8488V14.9465L76.7789 15.2692Z" fill="black"/>
<path fill-rule="evenodd" clip-rule="evenodd" d="M18.9282 0C21.4716 0 23.5937 1.80411 24.0844 4.20244C24.1545 4.54507 24.1914 4.89981 24.1914 5.26316V18.7368C24.1914 21.6436 21.8349 24 18.9282 24H5.45457C4.87909 24 4.32522 23.9076 3.8069 23.7371C1.70715 23.0455 0.191406 21.0682 0.191406 18.7368V5.26316C0.191406 2.3564 2.54781 0 5.45457 0H18.9282ZM16.7935 1.68421H18.9282C20.6724 1.68421 22.1253 2.932 22.4427 4.58362C21.4299 4.69838 20.272 4.59204 19.0493 4.06806C17.9659 3.60368 17.2472 2.74337 16.7935 1.68421ZM11.7962 1.68421H14.9952C15.5267 3.28411 16.5448 4.82707 18.3859 5.61608C19.8627 6.24901 21.2653 6.39583 22.5072 6.27251V7.99341C20.821 8.52718 19.1408 8.7432 17.7964 8.34971C17.1286 8.15425 16.3623 7.63533 15.5377 6.81899C14.7244 6.01383 13.9128 4.97827 13.1465 3.84632C12.6703 3.14288 12.2168 2.41013 11.7962 1.68421ZM9.862 1.68421H7.63334C7.73492 3.59004 7.28587 5.91794 5.61543 8.27621C4.50873 9.83861 3.2 10.6979 1.87562 11.0817V14.4394C2.67364 13.9547 3.61311 13.2928 4.71305 12.3992C7.31198 10.2875 9.35896 9.4473 10.9112 9.29362C12.4543 9.14082 13.5514 9.67613 14.0345 10.3527C14.5419 11.0629 14.8286 12.0147 14.9366 13.0185C15.0459 14.0345 14.9794 15.1678 14.7229 16.2924C14.2137 18.5282 12.9204 20.8554 10.5907 22.1099C10.4638 22.1783 10.3358 22.2469 10.2068 22.3158H12.8246C13.8484 21.016 14.6678 19.7246 14.9617 18.7126C15.2933 17.5701 15.4295 16.3589 15.5566 15.2267L15.5568 15.2265V15.2261C15.6025 14.8196 15.6472 14.4229 15.6992 14.0434C15.7895 13.3857 15.9141 12.6888 16.1817 12.1863C16.3234 11.9204 16.5484 11.6244 16.9105 11.4535C17.2918 11.2735 17.6886 11.2956 18.0366 11.4116C19.0122 11.7368 20.309 11.8042 22.5072 11.2535V9.75126C20.812 10.2289 18.9638 10.4462 17.3232 9.9661C16.2646 9.65627 15.2598 8.91381 14.3528 8.01587C13.4345 7.10678 12.5541 5.97524 11.752 4.79053C11.0659 3.77714 10.4272 2.70987 9.862 1.68421ZM22.5072 12.9857C20.413 13.4651 18.9072 13.4451 17.6335 13.0509C17.5394 13.2714 17.4516 13.6621 17.3678 14.2724C17.3261 14.5756 17.2876 14.9202 17.2457 15.2928V15.2931C17.1156 16.4543 16.9549 17.8874 16.5789 19.1821C16.2909 20.1745 15.6678 21.2648 14.9272 22.3158H16.6215C16.9341 21.5385 17.2219 20.7983 17.448 20.1762C17.6909 19.5076 17.8429 19.0267 17.892 18.7821C17.9848 18.3175 18.1619 17.8175 18.5773 17.4632C19.0093 17.0943 19.5398 17.0152 20.0368 17.0404C20.5263 17.0655 21.1002 17.1973 21.7476 17.3829C21.9829 17.4503 22.236 17.5274 22.5072 17.6131V12.9857ZM22.4524 19.364C22.0128 19.2213 21.6259 19.1002 21.2832 19.0019C20.6577 18.8223 20.2381 18.7371 19.9514 18.7225C19.7661 18.7131 19.6912 18.736 19.6697 18.7455C19.6575 18.7598 19.5977 18.8413 19.5436 19.1124C19.4661 19.4994 19.2701 20.0931 19.0309 20.7514C18.8594 21.2238 18.6554 21.7564 18.4345 22.3158H18.9282C20.6909 22.3158 22.156 21.0415 22.4524 19.364ZM6.57282 22.3158C7.67576 21.7469 8.78901 21.1672 9.79221 20.6269C11.5678 19.6709 12.6429 17.8404 13.0808 15.9183C13.2983 14.964 13.3501 14.0181 13.2621 13.1987C13.1726 12.3669 12.9463 11.7267 12.664 11.3316C12.621 11.2714 12.1918 10.8594 11.077 10.9697C9.9713 11.0792 8.22882 11.7126 5.77511 13.7063C4.23913 14.9543 2.95374 15.8093 1.87562 16.3745V18.2739C2.14139 18.0307 2.44149 17.8276 2.71884 17.6543C3.00139 17.4777 3.30926 17.304 3.61183 17.1343L3.68682 17.0922C3.96945 16.9339 4.24997 16.7766 4.52854 16.6099C5.13791 16.2448 5.68585 15.8636 6.10718 15.42C6.83665 14.652 7.88955 13.7356 8.87943 13.1099C9.36776 12.8011 9.89515 12.528 10.3928 12.4027C10.8598 12.2851 11.5838 12.2373 12.0884 12.8141C12.5686 13.3629 12.7676 14.1861 12.4179 15.2545C12.0857 16.2695 11.2514 17.5507 9.63867 19.2173C7.96471 20.9469 6.29069 21.8135 4.87936 22.0897C4.72019 22.1208 4.5636 22.1444 4.41017 22.1611C4.74057 22.2617 5.09124 22.3158 5.45457 22.3158H6.57282ZM1.87562 9.29975C2.6916 8.96133 3.50452 8.34255 4.24107 7.30269C5.69543 5.24949 6.04688 3.25855 5.9468 1.68421H5.45457C3.47795 1.68421 1.87562 3.28657 1.87562 5.26316V9.29975ZM19.668 18.7463C19.664 18.7482 19.6623 18.7495 19.6625 18.7495C19.6627 18.7497 19.6636 18.7493 19.665 18.7482L19.6661 18.7476L19.668 18.7463ZM9.7793 14.5335C8.9312 15.0695 7.98398 15.8897 7.32829 16.58C6.74974 17.1891 6.04772 17.6632 5.39393 18.0547C5.09349 18.2345 4.79221 18.4034 4.51296 18.56L4.43562 18.6034C4.1296 18.7749 3.85522 18.9301 3.61143 19.0825C3.08574 19.4109 2.866 19.632 2.79711 19.7733C2.77736 19.8139 2.77501 19.8371 2.78111 19.8724C2.78976 19.9229 2.82602 20.0394 2.97025 20.2316L2.98427 20.2503L2.99724 20.2697C2.99804 20.2707 3.01701 20.2971 3.07728 20.3339C3.13953 20.372 3.23589 20.4149 3.37275 20.4486C3.64781 20.5164 4.04819 20.536 4.556 20.4366C5.56576 20.2392 6.94444 19.5794 8.4284 18.0459C9.97366 16.4493 10.6021 15.3874 10.8173 14.7307C10.9453 14.3396 10.9189 14.1278 10.8781 14.0196C10.8575 14.0234 10.833 14.0286 10.8042 14.036C10.561 14.0973 10.21 14.2613 9.7793 14.5335ZM10.9686 14.0116C10.9682 14.0122 10.9632 14.0122 10.9547 14.0105C10.9646 14.0103 10.969 14.0112 10.9686 14.0116Z" fill="#56704E"/>
</svg>
