<svg width="125" height="24" viewBox="0 0 125 24" fill="none" xmlns="http://www.w3.org/2000/svg">
<path d="M3.34331 2.67251C5.03183 1.06039 7.32462 0.11943 9.64843 0.00238671C10.4437 0.00238671 11.2414 0.00715851 12.0367 0C11.9961 0.852631 12.0367 1.70765 12.0128 2.56024C11.9006 4.4661 11.196 6.32897 10.0091 7.82405C8.46622 9.83502 6.10658 11.1844 3.60126 11.5331C2.50743 11.7098 1.39685 11.5976 0.295853 11.6286C0.314942 10.69 0.255247 9.74904 0.329299 8.81281C0.544257 6.49139 1.64048 4.26789 3.34331 2.67251Z" fill="#FFC100"/>
<path d="M12.7734 0C13.6261 0.00954468 14.4787 -0.0047728 15.3337 0.00477188C17.4617 0.155222 19.561 0.97202 21.1634 2.38831C22.9308 3.90487 24.1417 6.07345 24.4523 8.3901C24.5882 9.4648 24.5024 10.5515 24.555 11.631C23.8096 11.6286 23.0671 11.6262 22.3217 11.631C20.49 11.5808 18.6893 10.9886 17.156 9.99024C16.449 9.48393 15.723 8.97046 15.1928 8.26828C14.0297 6.96907 13.2392 5.33786 12.9406 3.61828C12.7161 2.42411 12.8069 1.20611 12.7734 0Z" fill="#FFC100"/>
<path d="M0.297886 12.314C1.05499 12.357 1.81448 12.2781 2.56916 12.3617C5.80051 12.431 8.93639 14.2461 10.6105 17.0093C11.5707 18.557 12.0865 20.3912 12.0197 22.2136C12.0173 22.8106 12.0268 23.4051 12.0101 24C10.8112 23.964 9.60031 24.0619 8.41333 23.8301C5.77665 23.3861 3.35255 21.8169 1.89326 19.5768C0.787495 17.948 0.235804 15.9585 0.293113 13.9929C0.293113 13.4317 0.293114 12.8728 0.297886 12.314Z" fill="#FFC100"/>
<path d="M20.5203 12.567C21.8197 12.278 23.1592 12.3258 24.4801 12.3258L24.5375 12.3831C24.5088 13.6322 24.6067 14.8956 24.3559 16.1303C23.8281 18.9008 21.994 21.3752 19.5268 22.7341C17.9911 23.5891 16.2286 24.0093 14.4731 23.9903C13.9119 23.9927 13.3482 23.9806 12.787 23.9976C12.787 22.9634 12.744 21.9244 12.8611 20.8951C13.1333 18.404 14.4803 16.0849 16.4172 14.5182C17.6161 13.5725 19.0252 12.887 20.5203 12.567Z" fill="#FFC100"/>
<path d="M34.3404 19.3741C34.3404 19.7946 34.1948 20.1504 33.904 20.4414C33.629 20.7164 33.2812 20.8539 32.861 20.8539C32.4565 20.8539 32.1168 20.7164 31.8422 20.4414C31.5672 20.1504 31.4297 19.7946 31.4297 19.3741V4.38317C31.4297 3.96272 31.5672 3.61503 31.8422 3.34013C32.133 3.04906 32.4889 2.9035 32.9095 2.9035C33.3297 2.9035 33.6694 3.04906 33.9283 3.34013C34.2029 3.61503 34.3404 3.96272 34.3404 4.38317V19.3741Z" fill="black"/>
<path d="M46.0249 7.87628C46.4452 7.87628 46.793 8.0218 47.068 8.31291C47.3426 8.5878 47.4801 8.9355 47.4801 9.35595V15.5173C47.4801 17.2314 47.0033 18.5899 46.0492 19.5925C45.0947 20.5951 43.7205 21.0966 41.9252 21.0966C40.1303 21.0966 38.7556 20.5951 37.8016 19.5925C36.8637 18.5899 36.3945 17.2314 36.3945 15.5173V9.35595C36.3945 8.9355 36.532 8.5878 36.8071 8.31291C37.0821 8.0218 37.4295 7.87628 37.8501 7.87628C38.2707 7.87628 38.6181 8.0218 38.8931 8.31291C39.1681 8.5878 39.3057 8.9355 39.3057 9.35595V15.5173C39.3057 16.5037 39.5241 17.2395 39.9604 17.7247C40.3972 18.1937 41.052 18.4281 41.9252 18.4281C42.8149 18.4281 43.4778 18.1937 43.9146 17.7247C44.351 17.2395 44.5694 16.5037 44.5694 15.5173V9.35595C44.5694 8.9355 44.7069 8.5878 44.9819 8.31291C45.2565 8.0218 45.6043 7.87628 46.0249 7.87628Z" fill="black"/>
<path d="M56.2343 7.63367C57.5281 7.63367 58.4822 7.949 59.0969 8.57968C59.7113 9.19422 60.1157 9.99468 60.3094 10.9811L59.8973 10.7628L60.0914 10.3747C60.2851 10.0028 60.5844 9.60658 60.9889 9.18613C61.3929 8.7495 61.8782 8.38564 62.444 8.09456C63.0264 7.78727 63.6731 7.63367 64.3849 7.63367C65.5493 7.63367 66.4305 7.88434 67.0287 8.38563C67.6434 8.88693 68.0637 9.55805 68.2901 10.399C68.5166 11.2237 68.6299 12.1455 68.6299 13.1643V19.3741C68.6299 19.7946 68.4924 20.1504 68.2173 20.4414C67.9423 20.7164 67.5949 20.8539 67.1743 20.8539C66.7541 20.8539 66.4063 20.7164 66.1313 20.4414C65.8563 20.1504 65.7187 19.7946 65.7187 19.3741V13.1643C65.7187 12.6306 65.6544 12.1536 65.525 11.7331C65.3956 11.2965 65.161 10.9488 64.8213 10.6901C64.482 10.4313 63.9967 10.302 63.3661 10.302C62.7514 10.302 62.226 10.4313 61.7892 10.6901C61.3525 10.9488 61.0212 11.2965 60.7947 11.7331C60.5844 12.1536 60.4793 12.6306 60.4793 13.1643V19.3741C60.4793 19.7946 60.3418 20.1504 60.0672 20.4414C59.7921 20.7164 59.4443 20.8539 59.0241 20.8539C58.6035 20.8539 58.2557 20.7164 57.9811 20.4414C57.7061 20.1504 57.5686 19.7946 57.5686 19.3741V13.1643C57.5686 12.6306 57.5038 12.1536 57.3744 11.7331C57.245 11.2965 57.0104 10.9488 56.6711 10.6901C56.3314 10.4313 55.8461 10.302 55.2155 10.302C54.6012 10.302 54.0754 10.4313 53.6387 10.6901C53.2023 10.9488 52.8706 11.2965 52.6441 11.7331C52.4342 12.1536 52.3291 12.6306 52.3291 13.1643V19.3741C52.3291 19.7946 52.1916 20.1504 51.9166 20.4414C51.6416 20.7164 51.2941 20.8539 50.8735 20.8539C50.4529 20.8539 50.1055 20.7164 49.8305 20.4414C49.5555 20.1504 49.418 19.7946 49.418 19.3741V9.35592C49.418 8.93546 49.5555 8.58777 49.8305 8.31288C50.1055 8.02176 50.4529 7.87625 50.8735 7.87625C51.2941 7.87625 51.6416 8.02176 51.9166 8.31288C52.1916 8.58777 52.3291 8.93546 52.3291 9.35592V10.399L51.9651 10.3262C52.1107 10.0513 52.3129 9.76019 52.5714 9.45294C52.8302 9.12951 53.1456 8.83035 53.5177 8.55542C53.8894 8.28052 54.3019 8.06221 54.7545 7.90047C55.2075 7.7226 55.7009 7.63367 56.2343 7.63367Z" fill="black"/>
<path d="M73.3097 19.3742C73.3097 19.7946 73.1722 20.1504 72.8972 20.4414C72.6226 20.7164 72.2747 20.8539 71.8541 20.8539C71.4339 20.8539 71.0861 20.7164 70.8111 20.4414C70.5365 20.1504 70.399 19.7946 70.399 19.3742V9.35592C70.399 8.93547 70.5365 8.58778 70.8111 8.31288C71.0861 8.02177 71.4339 7.87625 71.8541 7.87625C72.2747 7.87625 72.6226 8.02177 72.8972 8.31288C73.1722 8.58778 73.3097 8.93547 73.3097 9.35592V19.3742ZM71.8299 6.29952C71.2802 6.29952 70.892 6.21058 70.6655 6.03267C70.4394 5.8548 70.3262 5.53947 70.3262 5.08666V4.62576C70.3262 4.15682 70.4475 3.84144 70.6898 3.67975C70.9486 3.50188 71.3369 3.4129 71.8541 3.4129C72.4203 3.4129 72.8167 3.50188 73.0428 3.67975C73.2692 3.85762 73.3825 4.17296 73.3825 4.62576V5.08666C73.3825 5.55564 73.2612 5.87907 73.0185 6.05694C72.7762 6.21868 72.3799 6.29952 71.8299 6.29952Z" fill="black"/>
<path d="M82.0256 7.63367C83.2223 7.63367 84.1278 7.88434 84.7422 8.38563C85.3731 8.88693 85.8014 9.55805 86.0279 10.399C86.2705 11.2237 86.3919 12.1455 86.3919 13.1643V19.3741C86.3919 19.7946 86.2544 20.1504 85.9793 20.4414C85.7043 20.7164 85.3569 20.8539 84.9363 20.8539C84.5161 20.8539 84.1683 20.7164 83.8933 20.4414C83.6182 20.1504 83.4807 19.7946 83.4807 19.3741V13.1643C83.4807 12.6306 83.4083 12.1536 83.2627 11.7331C83.1333 11.2965 82.8907 10.9488 82.5348 10.6901C82.1793 10.4313 81.6697 10.302 81.0068 10.302C80.3597 10.302 79.8101 10.4313 79.3571 10.6901C78.9207 10.9488 78.581 11.2965 78.3383 11.7331C78.1119 12.1536 77.9986 12.6306 77.9986 13.1643V19.3741C77.9986 19.7946 77.8615 20.1504 77.5865 20.4414C77.3115 20.7164 76.9637 20.8539 76.5435 20.8539C76.1228 20.8539 75.775 20.7164 75.5004 20.4414C75.2254 20.1504 75.0879 19.7946 75.0879 19.3741V9.35592C75.0879 8.93546 75.2254 8.58777 75.5004 8.31288C75.775 8.02176 76.1228 7.87625 76.5435 7.87625C76.9637 7.87625 77.3115 8.02176 77.5865 8.31288C77.8615 8.58777 77.9986 8.93546 77.9986 9.35592V10.399L77.635 10.3262C77.7806 10.0513 77.9905 9.76019 78.2655 9.45294C78.5406 9.12951 78.8641 8.83035 79.2358 8.55542C79.6079 8.28052 80.0285 8.06221 80.4972 7.90047C80.9664 7.7226 81.4755 7.63367 82.0256 7.63367Z" fill="black"/>
<path d="M100.794 14.3771C100.794 15.7032 100.494 16.8757 99.8961 17.8944C99.3137 18.8971 98.5215 19.6814 97.5189 20.2472C96.5324 20.8135 95.4247 21.0966 94.1956 21.0966C92.9665 21.0966 91.8507 20.8135 90.8481 20.2472C89.8617 19.6814 89.0694 18.8971 88.4708 17.8944C87.8888 16.8757 87.5977 15.7032 87.5977 14.3771C87.5977 13.0511 87.8888 11.8868 88.4708 10.8841C89.0694 9.8653 89.8617 9.07293 90.8481 8.50693C91.8507 7.92474 92.9665 7.63367 94.1956 7.63367C95.4247 7.63367 96.5324 7.92474 97.5189 8.50693C98.5215 9.07293 99.3137 9.8653 99.8961 10.8841C100.494 11.8868 100.794 13.0511 100.794 14.3771ZM97.8829 14.3771C97.8829 13.5524 97.713 12.8409 97.3733 12.2425C97.0497 11.628 96.6052 11.151 96.039 10.8114C95.4894 10.4718 94.8747 10.302 94.1956 10.302C93.5166 10.302 92.8937 10.4718 92.3279 10.8114C91.7779 11.151 91.333 11.628 90.9937 12.2425C90.6701 12.8409 90.5084 13.5524 90.5084 14.3771C90.5084 15.1857 90.6701 15.8973 90.9937 16.5118C91.333 17.1101 91.7779 17.5791 92.3279 17.9187C92.8937 18.2583 93.5166 18.4281 94.1956 18.4281C94.8747 18.4281 95.4894 18.2583 96.039 17.9187C96.6052 17.5791 97.0497 17.1101 97.3733 16.5118C97.713 15.8973 97.8829 15.1857 97.8829 14.3771Z" fill="black"/>
<path d="M111.642 7.87628C112.062 7.87628 112.41 8.0218 112.685 8.31291C112.96 8.5878 113.097 8.9355 113.097 9.35595V15.5173C113.097 17.2314 112.62 18.5899 111.666 19.5925C110.712 20.5951 109.338 21.0966 107.542 21.0966C105.747 21.0966 104.373 20.5951 103.419 19.5925C102.481 18.5899 102.012 17.2314 102.012 15.5173V9.35595C102.012 8.9355 102.149 8.5878 102.424 8.31291C102.699 8.0218 103.047 7.87628 103.467 7.87628C103.888 7.87628 104.235 8.0218 104.51 8.31291C104.785 8.5878 104.923 8.9355 104.923 9.35595V15.5173C104.923 16.5037 105.141 17.2395 105.578 17.7247C106.014 18.1937 106.669 18.4281 107.542 18.4281C108.432 18.4281 109.095 18.1937 109.531 17.7247C109.968 17.2395 110.187 16.5037 110.187 15.5173V9.35595C110.187 8.9355 110.324 8.5878 110.599 8.31291C110.874 8.0218 111.222 7.87628 111.642 7.87628Z" fill="black"/>
<path d="M114.285 18.8405C114.123 18.6141 114.05 18.323 114.067 17.9672C114.083 17.6115 114.293 17.3042 114.698 17.0454C114.956 16.8837 115.231 16.819 115.522 16.8514C115.813 16.8676 116.096 17.0131 116.371 17.288C116.84 17.757 117.333 18.1208 117.851 18.3796C118.368 18.6383 119.015 18.7677 119.791 18.7677C120.034 18.7515 120.301 18.7192 120.592 18.6707C120.883 18.606 121.134 18.4766 121.344 18.2826C121.57 18.0724 121.683 17.757 121.683 17.3365C121.683 16.9808 121.562 16.6978 121.319 16.4875C121.077 16.2773 120.754 16.0994 120.349 15.9539C119.961 15.8083 119.525 15.6709 119.04 15.5415C118.538 15.396 118.02 15.2343 117.487 15.0564C116.969 14.8785 116.492 14.6521 116.056 14.3771C115.619 14.0861 115.263 13.706 114.988 13.2371C114.714 12.7681 114.576 12.1778 114.576 11.4663C114.576 10.6577 114.802 9.97046 115.255 9.40445C115.708 8.83844 116.29 8.40181 117.002 8.09456C117.73 7.78727 118.49 7.63367 119.282 7.63367C119.783 7.63367 120.309 7.69834 120.859 7.82771C121.408 7.94092 121.934 8.13496 122.435 8.4099C122.937 8.66862 123.357 9.01631 123.697 9.45294C123.875 9.69552 123.98 9.98659 124.012 10.3262C124.044 10.6658 123.891 10.9731 123.551 11.248C123.309 11.442 123.026 11.531 122.702 11.5148C122.379 11.4825 122.112 11.3693 121.902 11.1752C121.627 10.8194 121.255 10.5364 120.786 10.3262C120.333 10.116 119.808 10.0109 119.209 10.0109C118.967 10.0109 118.7 10.0432 118.409 10.1079C118.134 10.1564 117.891 10.2777 117.681 10.4718C117.471 10.6496 117.366 10.9407 117.366 11.345C117.366 11.717 117.487 12.0161 117.73 12.2425C117.972 12.4528 118.295 12.6306 118.7 12.7762C119.12 12.9056 119.565 13.0349 120.034 13.1643C120.519 13.2937 121.012 13.4473 121.514 13.6252C122.015 13.8031 122.476 14.0375 122.896 14.3287C123.317 14.6197 123.656 14.9998 123.915 15.4687C124.174 15.9215 124.303 16.5037 124.303 17.2152C124.303 18.04 124.061 18.7435 123.575 19.3256C123.09 19.9078 122.484 20.3524 121.756 20.6598C121.029 20.951 120.284 21.0966 119.525 21.0966C118.57 21.0966 117.616 20.9348 116.662 20.6112C115.708 20.2715 114.916 19.6814 114.285 18.8405Z" fill="black"/>
</svg>
