<svg width="72" height="24" viewBox="0 0 72 24" fill="none" xmlns="http://www.w3.org/2000/svg">
<path d="M10.2515 0.27629C10.8895 -0.0920968 11.6757 -0.0920968 12.3137 0.27629L20.7625 5.15419L14.9205 8.575C14.0162 7.66711 12.7647 7.10524 11.382 7.10524C9.94405 7.10524 8.64802 7.71296 7.73676 8.68557L1.75391 5.18236L10.2515 0.27629Z" fill="#00E1E5"/>
<path d="M6.59727 10.6612L0.613281 7.15735V16.9519L6.57497 13.4611C6.45258 13.0282 6.38708 12.5714 6.38708 12.0994C6.38708 11.5994 6.46054 11.1166 6.59727 10.6612Z" fill="#00E1E5"/>
<path d="M7.68289 15.4551L1.84766 18.8719L10.2512 23.7237C10.8893 24.092 11.6754 24.092 12.3135 23.7237L20.6682 18.9002L14.9759 15.5669C14.0677 16.5081 12.793 17.0936 11.3817 17.0936C9.91534 17.0936 8.59655 16.4615 7.68289 15.4551Z" fill="#00E1E5"/>
<path d="M16.1437 13.6084L21.9503 17.0085C21.9505 16.9953 21.9507 16.9821 21.9507 16.9689V7.10065L16.1191 10.5152C16.2856 11.013 16.3757 11.5457 16.3757 12.0994C16.3757 12.6253 16.2944 13.1323 16.1437 13.6084Z" fill="#00E1E5"/>
<path fill-rule="evenodd" clip-rule="evenodd" d="M28.8623 17.7197C29.6991 18.2305 30.7047 18.486 31.8786 18.486C33.0524 18.486 34.0578 18.2305 34.8949 17.7197C35.7373 17.2033 36.3812 16.486 36.8268 15.5675C37.2781 14.6491 37.5035 13.5838 37.5035 12.3719C37.5035 11.16 37.2781 10.0947 36.8268 9.17626C36.3812 8.2578 35.7373 7.54313 34.8949 7.03226C34.0578 6.51597 33.0524 6.25781 31.8786 6.25781C30.7047 6.25781 29.6991 6.51597 28.8623 7.03226C28.0254 7.54313 27.3813 8.2578 26.9303 9.17626C26.4847 10.0947 26.2617 11.16 26.2617 12.3719C26.2617 13.5838 26.4847 14.6491 26.9303 15.5675C27.3813 16.486 28.0254 17.2033 28.8623 17.7197ZM33.8433 16.1138C33.3216 16.467 32.6666 16.6409 31.8786 16.6355C31.0906 16.6246 30.4329 16.4425 29.9058 16.0892C29.384 15.736 28.9928 15.2441 28.7319 14.6137C28.4711 13.9779 28.3405 13.2306 28.3405 12.3719C28.3405 11.5132 28.4711 10.7632 28.7319 10.1219C28.9982 9.48062 29.3921 8.98334 29.9138 8.63009C30.4356 8.27682 31.0906 8.1029 31.8786 8.10835C32.6666 8.11922 33.3216 8.30127 33.8433 8.65455C34.3704 9.0078 34.7643 9.50235 35.0252 10.1382C35.2917 10.7686 35.4247 11.5132 35.4247 12.3719C35.4247 13.2306 35.2917 13.9805 35.0252 14.6219C34.7643 15.2633 34.3704 15.7605 33.8433 16.1138Z" fill="#242A31"/>
<path d="M38.4746 17.8291C38.4746 18.0567 38.6592 18.2415 38.8871 18.2415H40.0349C40.2628 18.2415 40.4474 18.0567 40.4474 17.8291V13.7659C40.4474 13.4289 40.4882 13.1165 40.5697 12.8285C40.6512 12.535 40.7761 12.2741 40.9446 12.0459C41.1187 11.8176 41.3414 11.6301 41.6132 11.4834C41.8848 11.3204 42.1892 11.2252 42.5262 11.1981C42.6526 11.188 42.7735 11.185 42.8887 11.1891C43.1636 11.1987 43.4311 10.9965 43.4311 10.7215V9.78661C43.4311 9.585 43.2853 9.4101 43.084 9.39888C42.9333 9.39046 42.7798 9.39238 42.6239 9.40461C42.3468 9.4209 42.0752 9.47254 41.8089 9.55949C41.548 9.64101 41.3088 9.75514 41.0915 9.90189C40.8359 10.0595 40.6159 10.2606 40.4311 10.5051C40.3507 10.6125 40.2773 10.7252 40.2111 10.8435V9.84967C40.2111 9.62187 40.0263 9.43722 39.7986 9.43722H38.8871C38.6592 9.43722 38.4746 9.62187 38.4746 9.84967V17.8291Z" fill="#242A31"/>
<path fill-rule="evenodd" clip-rule="evenodd" d="M48.5656 18.4861C47.7069 18.4861 46.9868 18.2824 46.4052 17.8747C46.2819 17.7883 46.1651 17.6953 46.0548 17.5957V17.8291C46.0548 18.0568 45.87 18.2416 45.6424 18.2416H44.7308C44.5029 18.2416 44.3184 18.0568 44.3184 17.8291V6.91496C44.3184 6.68716 44.5029 6.5025 44.7308 6.5025H45.8867C46.1146 6.5025 46.2992 6.68716 46.2992 6.91496V9.86385C46.3262 9.84358 46.3532 9.82368 46.3809 9.80411C46.9515 9.3965 47.6552 9.1927 48.4922 9.1927C49.3238 9.1927 50.0439 9.3965 50.6525 9.80411C51.2666 10.2063 51.7422 10.7579 52.0792 11.459C52.4162 12.1546 52.5846 12.9481 52.5846 13.8394C52.5846 14.7198 52.4188 15.5107 52.0872 16.2116C51.7558 16.9128 51.2883 17.4672 50.6851 17.8747C50.0818 18.2824 49.3753 18.4861 48.5656 18.4861ZM46.2749 12.3313C46.128 12.7606 46.0548 13.2633 46.0548 13.8394C46.0548 14.41 46.128 14.9128 46.2749 15.3475C46.4271 15.7823 46.6634 16.1219 46.9841 16.3665C47.3101 16.6058 47.7368 16.7252 48.2639 16.7252C48.7748 16.7252 49.1961 16.5975 49.5275 16.3422C49.8591 16.0867 50.1035 15.7417 50.2613 15.3067C50.4242 14.8666 50.5059 14.3774 50.5059 13.8394C50.5059 13.3068 50.4242 12.8231 50.2613 12.3883C50.0981 11.9481 49.8455 11.6003 49.503 11.3448C49.1606 11.084 48.7259 10.9535 48.1988 10.9535C47.6987 10.9535 47.2912 11.0758 46.9758 11.3204C46.6607 11.5595 46.4271 11.8965 46.2749 12.3313Z" fill="#242A31"/>
<path d="M53.8926 17.8292C53.8926 18.0568 54.0772 18.2416 54.305 18.2416H55.4449C55.6725 18.2416 55.8573 18.0568 55.8573 17.8292V9.84978C55.8573 9.62197 55.6725 9.43732 55.4449 9.43732H54.305C54.0772 9.43732 53.8926 9.62197 53.8926 9.84978V17.8292Z" fill="#242A31"/>
<path d="M62.8064 17.8988C62.8064 18.0974 62.6651 18.269 62.4686 18.2976C62.0035 18.3657 61.5455 18.3931 61.0945 18.3799C60.5401 18.369 60.0429 18.2685 59.6026 18.0782C59.1625 17.8827 58.8282 17.5756 58.5999 17.157C58.3989 16.7767 58.2929 16.3881 58.2819 15.9914C58.2712 15.5946 58.2656 15.1462 58.2656 14.6461V10.9778H57.0804C56.8525 10.9778 56.668 10.7931 56.668 10.5653V9.84948C56.668 9.62168 56.8525 9.43703 57.0804 9.43703H58.2656V7.40385C58.2656 7.17605 58.4504 6.99139 58.6781 6.99139H59.8097C60.0375 6.99139 60.2221 7.17605 60.2221 7.40385V9.43703H62.3939C62.6218 9.43703 62.8064 9.62168 62.8064 9.84948V10.5653C62.8064 10.7931 62.6218 10.9778 62.3939 10.9778H60.2221V14.5321C60.2221 14.8854 60.225 15.1951 60.2304 15.4614C60.2413 15.7278 60.2982 15.9452 60.4015 16.1137C60.5973 16.4397 60.9097 16.6218 61.3391 16.6597C61.6404 16.6866 61.9714 16.6837 62.3316 16.6515C62.5826 16.629 62.8064 16.8208 62.8064 17.0728V17.8988Z" fill="#242A31"/>
<path d="M65.1026 17.8833C65.7437 18.2855 66.5181 18.4866 67.4257 18.4866C68.4094 18.4866 69.241 18.2473 69.9203 17.7691C70.4899 17.3636 70.9162 16.813 71.1991 16.1174C71.2894 15.8953 71.1476 15.6538 70.9135 15.6016L69.7037 15.3311C69.4979 15.2851 69.2942 15.4041 69.2012 15.5934C69.0601 15.8804 68.8786 16.111 68.6567 16.2855C68.3579 16.5245 67.9475 16.6441 67.4257 16.6441C66.6866 16.6441 66.1296 16.3859 65.7547 15.8697C65.3797 15.3533 65.1921 14.6767 65.1921 13.8398C65.1921 13.3018 65.2708 12.8208 65.4286 12.3969C65.5862 11.973 65.8308 11.6415 66.1622 11.4023C66.4938 11.1578 66.9149 11.0355 67.4257 11.0355C67.877 11.0355 68.2791 11.1686 68.6324 11.4349C68.8889 11.6244 69.0925 11.8698 69.2428 12.171C69.3414 12.3681 69.5577 12.4902 69.7704 12.4326L70.9589 12.1107C71.1748 12.0522 71.3072 11.8312 71.2329 11.6201C70.9908 10.9312 70.5751 10.3749 69.9857 9.95126C69.2954 9.44583 68.4503 9.19312 67.4503 9.19312C66.559 9.19312 65.7899 9.39421 65.1432 9.79638C64.4965 10.1931 63.9966 10.742 63.6433 11.4431C63.2954 12.1387 63.1188 12.9376 63.1133 13.8398C63.1188 14.7258 63.29 15.5191 63.627 16.2203C63.9693 16.9213 64.4612 17.4756 65.1026 17.8833Z" fill="#242A31"/>
<path d="M53.8453 7.06498L54.3987 6.51164C54.6401 6.27004 55.032 6.27004 55.2735 6.51164L55.8268 7.06498C56.0685 7.30659 56.0685 7.69833 55.8268 7.93994L55.2735 8.49328C55.032 8.73487 54.6401 8.73487 54.3987 8.49328L53.8453 7.93994C53.6036 7.69833 53.6036 7.30659 53.8453 7.06498Z" fill="#242A31"/>
</svg>
